<svg width="58" height="52" viewBox="0 0 58 52" fill="none" xmlns="http://www.w3.org/2000/svg">
<path d="M45.4818 0H25.4532L13.3525 12.3157L34.633 12.7718L45.4818 0Z" fill="#ABF5B6"/>
<path d="M57.165 12.7718L45.4817 0L34.6328 12.7718L46.3162 25.9998L57.165 12.7718Z" fill="#7FC88A"/>
<path d="M22.9502 26.0004L34.6336 12.7725L46.3169 26.0004L34.6336 38.7723L22.9502 26.0004Z" fill="#6960FE"/>
<path d="M13.3524 12.3159L34.6329 12.7721L22.9495 26H0L13.3524 12.3159Z" fill="#8982FF"/>
<path d="M12.9352 38.7718L0 26H22.9495L34.6329 38.7718H12.9352Z" fill="#5951DE"/>
<path d="M25.0964 51.9999L12.9335 38.772H35.0501L46.3162 51.9999H25.0964Z" fill="#1D152C"/>
<path d="M46.3162 26L34.6328 38.7718L46.3162 51.9998L57.9996 38.7718L46.3162 26Z" fill="#4D4065"/>
</svg>
