<svg width="210" height="210" xmlns="http://www.w3.org/2000/svg">

 <g>
  <title>Layer 1</title>
  <g>
   <path fill="#428F8F" d="m119.2496,194.2855l-31.451,0l-15.655,-27.272l31.412,0l15.694,27.272z"/>
   <path fill="#428F8F" d="m119.2496,134.5535l-5.841,10.224l-9.891,17.457l-31.425,0l5.865,-10.301l18.774,0c0.059,0.006 0.119,0.006 0.179,0l0.37,0c0.128,-0.06 0.252,-0.128 0.371,-0.204l0.077,0l0.319,-0.269l0.141,-0.166l0.089,-0.102l0.141,-0.217l0.076,-0.141l9.151,-15.847l-0.115,-0.204l11.719,-0.23z"/>
   <path fill="#428F8F" d="m139.1606,164.4965l-15.783,27.374l-15.694,-27.259l15.694,-27.694l15.783,27.579z"/>
   <path fill="#428F8F" d="m135.1476,46.0665l5.597,9.8148l-10.453,0l-6.71,-11.6934l15.029,-26.13461l5.265,9.02251l-9.188,16.0897c-0.055,0.0897 -0.102,0.1838 -0.141,0.2812c0,0 0,0.115 -0.064,0.1661l0,0.5367c0.016,0.3869 0.125,0.7642 0.32,1.0991l0.345,0.8179z"/>
   <path fill="#428F8F" d="m206.4586,45.0695l-14.263,26.3263l-0.038,-0.0767l-15.668,-27.0036l14.441,-26.1218l7.758,13.4379l7.757,13.4379l0.013,0z"/>
   <path fill="#428F8F" d="m186.8286,15.74008l-14.429,26.08342l-0.089,0.1534l-31.515,0l7.591,-13.1248l1.01,-1.7508l6.479,-11.16952l30.953,-0.1917z"/>
   <path fill="#428F8F" d="m188.1956,73.9773l-11.003,0l0,-0.1661l-9.662,-16.7926l-0.153,-0.2173c-0.08,-0.1029 -0.17,-0.1971 -0.269,-0.2811l-0.063,-0.0639l-0.307,-0.2173l-0.345,-0.1661c-0.119,-0.0517 -0.244,-0.0903 -0.371,-0.1151c-0.167,-0.04 -0.339,-0.0614 -0.511,-0.0638l-19.349,0l-5.226,-9.112l0.127,0l11.502,-0.0639l5.431,0l14.39,-0.0895l0.09,0.1534l15.63,27.0675l0.089,0.1278z"/>
   <path fill="#428F8F" d="m146.1506,147.0905l-11.502,0l-9.201,-16.064l-0.077,-0.141l-0.089,-0.128l-0.103,-0.115l-0.115,-0.115l-0.115,-0.102l-0.102,-0.217l-0.256,-0.179l-0.153,-0.064l-0.422,0c-0.063,-0.012 -0.128,-0.012 -0.191,0l-13.304,0l5.751,-9.968l14.058,0l15.821,27.093z"/>
   <path fill="#428F8F" d="m181.3966,91.0256l-31.08,53.7009l-15.77,-27.324l23.08,-40.6008l0,-0.0128l0.102,-0.1789l7.732,-13.5976l6.134,10.8372l0.064,0.1022l1.521,2.6582l0.064,0.1022l1.086,1.9042l0.051,0.1023l0.051,0.0894l6.965,12.2175z"/>
   <path fill="#428F8F" d="m130.0616,115.0259l-13.688,-0.0511l-8.741,-15.2079l13.534,-23.0674l0.051,-0.0895l1.572,-2.6838l6.249,-10.6327l1.086,-1.8786l0.422,-0.7157l2.492,0l10.467,-0.0383l2.108,-0.0128l2.377,0l2.467,-0.0128l10.543,-0.0383l-30.939,54.4289z"/>
   <path fill="#428F8F" d="m112.1946,117.2755l-1.419,2.453l-5.763,9.994l-0.103,0.192l-2.645,4.575l-0.115,0.204l-5.776,10.007l-1.227,-2.16l-29.5598,-51.7578l6.9518,-12.1663l17.381,-0.0128l0.025,0.0383l12.154,21.1122l0.166,0.2811l2.582,4.4729l0.153,0.2812l5.853,10.1727l1.342,2.3135z"/>
   <path fill="#428F8F" d="m68.3086,76.38l-0.115,0.1916l-6.76,11.8213l-31.4254,-0.1661l5.4825,-9.4443l20.0003,0c0.0932,0.0133 0.1879,0.0133 0.2811,0l0.3834,0l0.2301,-0.0894l0.2556,-0.1534l0.2428,-0.1789l0.115,-0.115c0.1532,-0.1529 0.2863,-0.3247 0.3962,-0.5112l5.6103,-10.1343l0.0767,-0.1406l5.2264,8.9203z"/>
   <path fill="#428F8F" d="m92.2586,147.1415l-11.578,0.064l-5.521,0.038l-14.0452,0.077l-31.1187,-54.3013l31.4382,0.1533l22.2877,39.029l0.882,1.534l1.866,3.284l5.789,10.122z"/>
   <path fill="#428F8F" d="m51.1328,74.003l-31.9621,0.0128l-15.6169,-27.2592l31.4254,0l16.1536,27.2464z"/>
   <path fill="#428F8F" d="m126.2906,58.5138l-9.035,15.3868l-24.55,-0.0255l-20.345,0l0,-0.0256l-0.218,0l-0.063,-0.1022l-6.3392,-11.0928l-0.8946,-1.5592l-1.9042,-3.3099l-6.3643,-11.1184l62.9023,0l0.076,0.1278l6.735,11.719z"/>
   <path fill="#428F8F" d="m134.4576,15.7145l-15.029,26.1857l-0.077,0.1278l-44.895,-0.1022l-5.611,0l-10.2618,-0.0128l-1.9809,0l6.0193,-10.0705l2.7732,-4.6007l6.8752,-11.43784l62.187,-0.08946z"/>
   <path fill="#428F8F" d="m60.2833,62.4757l-0.0639,0.1022l-4.9841,8.9458l-6.2238,-10.5305l-9.8659,-16.6648l15.0034,-26.2879l5.6614,9.1759l-9.4059,15.719c-0.2146,0.3596 -0.3293,0.7699 -0.3323,1.1886c-0.0017,0.42 0.1039,0.8335 0.3068,1.2013l0.0894,0.1405l6.1726,10.6839l2.7605,4.7669l0.8818,1.5591z"/>
   <path fill="#428F8F" d="m49.9574,15.80405l-14.9395,26.17295l-31.4765,0l14.9523,-26.17295l31.4637,0z"/>
  </g>
 </g>
</svg>