<svg width="98" height="30" viewBox="0 0 98 30" fill="none" xmlns="http://www.w3.org/2000/svg">
<path d="M54.136 18.432C53.6347 19.008 53.016 19.4667 52.28 19.808C51.544 20.1387 50.696 20.304 49.736 20.304C48.8613 20.304 48.0507 20.16 47.304 19.872C46.568 19.584 45.928 19.1787 45.384 18.656C44.84 18.1227 44.4133 17.488 44.104 16.752C43.7947 16.016 43.64 15.2053 43.64 14.32C43.64 13.4133 43.7947 12.592 44.104 11.856C44.424 11.12 44.8613 10.496 45.416 9.984C45.9707 9.46133 46.6213 9.06133 47.368 8.784C48.1147 8.50667 48.92 8.368 49.784 8.368C50.584 8.368 51.368 8.512 52.136 8.8C52.9147 9.07733 53.544 9.488 54.024 10.032L52.168 11.888C51.912 11.536 51.576 11.2747 51.16 11.104C50.744 10.9333 50.3173 10.848 49.88 10.848C49.4 10.848 48.9573 10.9387 48.552 11.12C48.1573 11.2907 47.816 11.5307 47.528 11.84C47.24 12.1493 47.016 12.5173 46.856 12.944C46.696 13.36 46.616 13.8187 46.616 14.32C46.616 14.832 46.696 15.3013 46.856 15.728C47.016 16.1547 47.2347 16.5227 47.512 16.832C47.8 17.1307 48.1413 17.3653 48.536 17.536C48.9307 17.7067 49.3627 17.792 49.832 17.792C50.376 17.792 50.8507 17.6853 51.256 17.472C51.6613 17.2587 51.9867 16.9813 52.232 16.64L54.136 18.432ZM60.4126 20V18.896H60.3806C60.2846 19.0773 60.1566 19.248 59.9966 19.408C59.8473 19.568 59.666 19.7067 59.4526 19.824C59.25 19.9413 59.0206 20.0373 58.7646 20.112C58.5193 20.1867 58.258 20.224 57.9806 20.224C57.4473 20.224 56.994 20.128 56.6206 19.936C56.258 19.744 55.9593 19.4987 55.7246 19.2C55.5006 18.8907 55.3353 18.544 55.2286 18.16C55.1326 17.7653 55.0846 17.3653 55.0846 16.96V12.032H57.7246V16.352C57.7246 16.576 57.7406 16.7893 57.7726 16.992C57.8046 17.1947 57.8633 17.376 57.9486 17.536C58.0446 17.696 58.1673 17.824 58.3166 17.92C58.466 18.0053 58.6633 18.048 58.9086 18.048C59.3673 18.048 59.714 17.8773 59.9486 17.536C60.194 17.1947 60.3166 16.7947 60.3166 16.336V12.032H62.9406V20H60.4126ZM73.8728 15.984C73.8728 16.5387 73.7874 17.072 73.6168 17.584C73.4461 18.096 73.1954 18.5493 72.8648 18.944C72.5448 19.328 72.1501 19.6373 71.6808 19.872C71.2114 20.1067 70.6781 20.224 70.0808 20.224C69.5474 20.224 69.0408 20.1173 68.5608 19.904C68.0914 19.68 67.7288 19.3653 67.4728 18.96H67.4408V20H65.0247V7.904H67.6488V12.88H67.6808C67.9048 12.6133 68.2194 12.368 68.6248 12.144C69.0301 11.92 69.5261 11.808 70.1128 11.808C70.6888 11.808 71.2061 11.92 71.6648 12.144C72.1341 12.368 72.5288 12.672 72.8488 13.056C73.1794 13.44 73.4301 13.888 73.6008 14.4C73.7821 14.9013 73.8728 15.4293 73.8728 15.984ZM71.3448 15.984C71.3448 15.728 71.3021 15.4773 71.2168 15.232C71.1421 14.9867 71.0248 14.7733 70.8648 14.592C70.7048 14.4 70.5074 14.2453 70.2728 14.128C70.0381 14.0107 69.7661 13.952 69.4568 13.952C69.1581 13.952 68.8914 14.0107 68.6568 14.128C68.4221 14.2453 68.2194 14.4 68.0488 14.592C67.8888 14.784 67.7608 15.0027 67.6648 15.248C67.5794 15.4933 67.5368 15.744 67.5368 16C67.5368 16.256 67.5794 16.5067 67.6648 16.752C67.7608 16.9973 67.8888 17.216 68.0488 17.408C68.2194 17.6 68.4221 17.7547 68.6568 17.872C68.8914 17.9893 69.1581 18.048 69.4568 18.048C69.7661 18.048 70.0381 17.9893 70.2728 17.872C70.5074 17.7547 70.7048 17.6 70.8648 17.408C71.0248 17.216 71.1421 16.9973 71.2168 16.752C71.3021 16.496 71.3448 16.24 71.3448 15.984ZM81.0276 15.104C81.0276 14.688 80.8943 14.3307 80.6276 14.032C80.3716 13.7333 79.9823 13.584 79.4596 13.584C79.2036 13.584 78.969 13.6267 78.7556 13.712C78.5423 13.7867 78.3556 13.8933 78.1956 14.032C78.0356 14.1707 77.9076 14.336 77.8116 14.528C77.7156 14.7093 77.6623 14.9013 77.6516 15.104H81.0276ZM83.4436 16.112C83.4436 16.2187 83.4436 16.3253 83.4436 16.432C83.4436 16.5387 83.4383 16.64 83.4276 16.736H77.6516C77.673 16.96 77.737 17.1627 77.8436 17.344C77.961 17.5253 78.105 17.6853 78.2756 17.824C78.457 17.952 78.6543 18.0533 78.8676 18.128C79.0916 18.2027 79.321 18.24 79.5556 18.24C79.9716 18.24 80.3236 18.1653 80.6116 18.016C80.8996 17.856 81.1343 17.6533 81.3156 17.408L83.1396 18.56C82.7663 19.104 82.2703 19.5253 81.6516 19.824C81.0436 20.112 80.3343 20.256 79.5236 20.256C78.9263 20.256 78.361 20.1653 77.8276 19.984C77.2943 19.792 76.825 19.52 76.4196 19.168C76.025 18.8053 75.7103 18.3627 75.4756 17.84C75.2516 17.3173 75.1396 16.72 75.1396 16.048C75.1396 15.3973 75.2516 14.8107 75.4756 14.288C75.6996 13.7547 76.0036 13.3067 76.3876 12.944C76.7716 12.5707 77.225 12.2827 77.7476 12.08C78.2703 11.8773 78.8356 11.776 79.4436 11.776C80.0303 11.776 80.569 11.8773 81.0596 12.08C81.5503 12.272 81.9716 12.5547 82.3236 12.928C82.6756 13.3013 82.9476 13.7547 83.1396 14.288C83.3423 14.8213 83.4436 15.4293 83.4436 16.112ZM87.9189 11.008V13.344H92.3029V15.6H87.9189V20H85.2149V8.672H92.6709V11.008H87.9189ZM96.8564 9.488C96.8564 9.69067 96.8137 9.88267 96.7284 10.064C96.6537 10.2347 96.547 10.384 96.4084 10.512C96.2804 10.64 96.1204 10.7413 95.9284 10.816C95.747 10.8907 95.555 10.928 95.3524 10.928C94.9257 10.928 94.5684 10.7893 94.2804 10.512C93.9924 10.224 93.8484 9.88267 93.8484 9.488C93.8484 9.296 93.8857 9.11467 93.9604 8.944C94.035 8.76267 94.1417 8.608 94.2804 8.48C94.419 8.352 94.579 8.25067 94.7604 8.176C94.9417 8.09067 95.139 8.048 95.3524 8.048C95.555 8.048 95.747 8.08533 95.9284 8.16C96.1204 8.23467 96.2804 8.336 96.4084 8.464C96.547 8.592 96.6537 8.74667 96.7284 8.928C96.8137 9.09867 96.8564 9.28533 96.8564 9.488ZM94.0404 20V12.032H96.6644V20H94.0404Z" fill="white"/>
<path d="M25.8771 0H14.4815L7.59668 7.1052L19.7045 7.36836L25.8771 0Z" fill="#ABF5B6"/>
<path d="M32.5251 7.36836L25.8777 0L19.7051 7.36836L26.3525 14.9999L32.5251 7.36836Z" fill="#7FC88A"/>
<path d="M13.0576 15.0002L19.705 7.36865L26.3524 15.0002L19.705 22.3685L13.0576 15.0002Z" fill="#6960FE"/>
<path d="M7.59704 7.10535L19.7048 7.3685L13.0574 15H0L7.59704 7.10535Z" fill="#8982FF"/>
<path d="M7.35964 22.3684L0 15H13.0574L19.7048 22.3684H7.35964Z" fill="#5951DE"/>
<path d="M14.2786 30.0002L7.35834 22.3687H19.9419L26.3519 30.0002H14.2786Z" fill="#1D152C"/>
<path d="M26.3525 15L19.7051 22.3684L26.3525 29.9999L32.9999 22.3684L26.3525 15Z" fill="#4D4065"/>
</svg>
