<svg width="80" height="80" viewBox="0 0 80 80" fill="none" xmlns="http://www.w3.org/2000/svg">
<rect width="80" height="80" rx="40" fill="url(#paint0_linear_1438_99)"/>
<path d="M49.3513 45.584C49.3513 46.976 49.0633 48.188 48.4873 49.22C47.9353 50.228 47.2033 51.068 46.2913 51.74C45.3793 52.388 44.3473 52.868 43.1953 53.18C42.0673 53.516 40.9153 53.684 39.7393 53.684C38.5873 53.684 37.4593 53.552 36.3553 53.288C35.2753 53.024 34.2793 52.628 33.3673 52.1C32.4793 51.548 31.6993 50.852 31.0273 50.012C30.3553 49.148 29.8513 48.116 29.5153 46.916L35.1313 45.44C35.3713 46.28 35.8633 47.024 36.6073 47.672C37.3513 48.296 38.2993 48.608 39.4513 48.608C39.8833 48.608 40.3153 48.548 40.7473 48.428C41.2033 48.308 41.5993 48.128 41.9353 47.888C42.2953 47.624 42.5833 47.288 42.7993 46.88C43.0393 46.472 43.1593 45.968 43.1593 45.368C43.1593 44.72 43.0033 44.18 42.6913 43.748C42.4033 43.316 42.0073 42.98 41.5033 42.74C41.0233 42.476 40.4713 42.296 39.8473 42.2C39.2233 42.08 38.5993 42.02 37.9753 42.02H36.3553V37.592H38.1193C38.6953 37.592 39.2473 37.556 39.7753 37.484C40.3033 37.388 40.7713 37.232 41.1793 37.016C41.6113 36.776 41.9473 36.464 42.1873 36.08C42.4513 35.696 42.5833 35.192 42.5833 34.568C42.5833 33.656 42.2593 32.96 41.6113 32.48C40.9633 32 40.2193 31.76 39.3793 31.76C38.5153 31.76 37.7593 32.024 37.1113 32.552C36.4873 33.056 36.0793 33.74 35.8873 34.604L30.2713 33.308C30.5833 32.228 31.0513 31.292 31.6753 30.5C32.2993 29.684 33.0313 29.012 33.8713 28.484C34.7353 27.932 35.6713 27.524 36.6793 27.26C37.6873 26.972 38.7193 26.828 39.7753 26.828C40.9033 26.828 41.9953 26.972 43.0513 27.26C44.1313 27.548 45.0913 27.992 45.9313 28.592C46.7713 29.192 47.4433 29.948 47.9473 30.86C48.4753 31.748 48.7393 32.804 48.7393 34.028C48.7393 35.444 48.3313 36.644 47.5153 37.628C46.7233 38.588 45.7033 39.236 44.4553 39.572V39.68C45.1753 39.848 45.8353 40.124 46.4353 40.508C47.0353 40.868 47.5513 41.312 47.9833 41.84C48.4153 42.344 48.7513 42.92 48.9913 43.568C49.2313 44.192 49.3513 44.864 49.3513 45.584Z" fill="#1D152C"/>
<defs>
<linearGradient id="paint0_linear_1438_99" x1="-4.71555" y1="41" x2="70.8959" y2="41" gradientUnits="userSpaceOnUse">
<stop offset="0.00939975" stop-color="#514BBB"/>
<stop offset="1" stop-color="#4F9D5B"/>
</linearGradient>
</defs>
</svg>
