<svg width="80" height="80" viewBox="0 0 80 80" fill="none" xmlns="http://www.w3.org/2000/svg">
<rect width="80" height="80" rx="40" fill="url(#paint0_linear_1438_90)"/>
<path d="M30.8113 53V47.96L40.7473 38.96C41.3713 38.36 41.8753 37.748 42.2593 37.124C42.6433 36.5 42.8353 35.804 42.8353 35.036C42.8353 34.124 42.5473 33.392 41.9713 32.84C41.3953 32.264 40.6273 31.976 39.6673 31.976C38.6593 31.976 37.8313 32.336 37.1833 33.056C36.5593 33.752 36.1873 34.676 36.0673 35.828L30.2713 35.036C30.4153 33.74 30.7633 32.588 31.3153 31.58C31.8913 30.572 32.6113 29.72 33.4753 29.024C34.3393 28.304 35.3233 27.764 36.4273 27.404C37.5553 27.02 38.7433 26.828 39.9913 26.828C41.1673 26.828 42.3073 26.984 43.4113 27.296C44.5153 27.608 45.4993 28.088 46.3633 28.736C47.2273 29.384 47.9113 30.2 48.4153 31.184C48.9433 32.168 49.2073 33.32 49.2073 34.64C49.2073 35.552 49.0873 36.38 48.8473 37.124C48.6073 37.844 48.2713 38.516 47.8393 39.14C47.4313 39.764 46.9513 40.352 46.3993 40.904C45.8713 41.432 45.3193 41.96 44.7433 42.488L38.8393 47.744H49.2433V53H30.8113Z" fill="#1D152C"/>
<defs>
<linearGradient id="paint0_linear_1438_90" x1="-4.71555" y1="41" x2="70.8959" y2="41" gradientUnits="userSpaceOnUse">
<stop offset="0.00939975" stop-color="#514BBB"/>
<stop offset="1" stop-color="#4F9D5B"/>
</linearGradient>
</defs>
</svg>
