<svg width="16" height="16" viewBox="0 0 16 16" fill="none" xmlns="http://www.w3.org/2000/svg">
<path d="M1 8.1827C1 9.73526 1.43515 11.131 2.30546 12.3699C3.17577 13.6089 4.30361 14.4763 5.68898 14.9722C5.74381 14.9814 5.78945 14.9861 5.82591 14.9861C5.86237 14.9861 5.89197 14.979 5.91472 14.965C5.93747 14.9509 5.9557 14.9369 5.96941 14.9228C5.98312 14.9087 5.9923 14.8854 5.99697 14.8528C6.00164 14.8201 6.00397 14.7968 6.00397 14.7827V13.3728C5.66681 13.4102 5.36597 13.4078 5.10143 13.3656C4.8369 13.3234 4.62953 13.2579 4.47933 13.169C4.32913 13.0801 4.197 12.9703 4.08297 12.8395C3.96893 12.7087 3.89149 12.5895 3.85066 12.4817C3.80983 12.374 3.76885 12.2618 3.72773 12.1451C3.6866 12.0283 3.66152 11.9606 3.65248 11.9417C3.57052 11.8014 3.44744 11.6728 3.28324 11.5561C3.11904 11.4394 2.99596 11.3459 2.914 11.2756C2.83205 11.2052 2.82286 11.1374 2.88644 11.0722C3.3423 10.8289 3.85722 11.1376 4.43121 11.9983C4.74124 12.4753 5.28357 12.6156 6.05822 12.4193C6.14951 12.036 6.33179 11.7086 6.60508 11.4372C5.54782 11.2408 4.76399 10.8386 4.25359 10.2305C3.74319 9.62244 3.48798 8.88356 3.48798 8.01391C3.48798 7.20022 3.73866 6.49412 4.24002 5.8956C4.03936 5.2878 4.06678 4.64723 4.32227 3.9739C4.58651 3.95505 4.88269 4.00876 5.21081 4.13505C5.53892 4.26134 5.76904 4.36892 5.90116 4.4578C6.03328 4.54668 6.14951 4.62853 6.24984 4.70335C6.76928 4.55372 7.35493 4.4789 8.00678 4.4789C8.65864 4.4789 9.24881 4.55372 9.77729 4.70335C9.8957 4.61925 10.0278 4.53037 10.1737 4.43671C10.3195 4.34304 10.5427 4.24249 10.8434 4.13505C11.1441 4.02762 11.4221 3.98318 11.6773 4.00173C11.9235 4.66579 11.9554 5.29708 11.7731 5.8956C12.2835 6.49412 12.5387 7.20022 12.5387 8.01391C12.5387 8.88356 12.279 9.62468 11.7595 10.2373C11.2401 10.8499 10.4563 11.2497 9.40805 11.4367C9.80004 11.8389 9.99603 12.3252 9.99603 12.8956V14.7051C9.99603 14.7144 10.0006 14.7284 10.0096 14.7473C10.0096 14.8035 10.0119 14.8456 10.0166 14.8734C10.0213 14.9012 10.0418 14.9294 10.0783 14.9578C10.1147 14.9862 10.1694 15.0003 10.2423 15C11.6368 14.5137 12.7783 13.6463 13.667 12.3978C14.5557 11.1493 15 9.74409 15 8.18225C15 7.20965 14.8154 6.2791 14.4461 5.3906C14.0769 4.50209 13.5802 3.73763 12.9561 3.09722C12.3319 2.4568 11.5869 1.94716 10.7209 1.5683C9.85501 1.18943 8.94811 1 8.00022 1C7.05233 1 6.14542 1.18943 5.27949 1.5683C4.41356 1.94716 3.66852 2.4568 3.04437 3.09722C2.42023 3.73763 1.92353 4.50209 1.5543 5.3906C1.18506 6.2791 1.00044 7.20965 1.00044 8.18225L1 8.1827Z" fill="currentColor"/>
</svg>
