<svg width="247" height="11" viewBox="0 0 247 11" fill="none" xmlns="http://www.w3.org/2000/svg">
<g opacity="0.5">
<line y1="-0.5" x2="12.1256" y2="-0.5" transform="matrix(0.565804 -0.824539 0.833454 0.552588 1.00098 11)" stroke="white"/>
<line y1="-0.5" x2="12.1256" y2="-0.5" transform="matrix(0.565564 -0.824704 0.833295 0.552828 50.8223 11)" stroke="white"/>
<line y1="-0.5" x2="12.1256" y2="-0.5" transform="matrix(0.565564 -0.824704 0.833295 0.552828 100.644 11)" stroke="white"/>
<line y1="-0.5" x2="12.1256" y2="-0.5" transform="matrix(0.565564 -0.824704 0.833295 0.552828 150.465 11)" stroke="white"/>
<line y1="-0.5" x2="12.1256" y2="-0.5" transform="matrix(0.565564 -0.824704 0.833295 0.552828 200.287 11)" stroke="white"/>
<line y1="-0.5" x2="12.1256" y2="-0.5" transform="matrix(0.565564 -0.824704 0.833295 0.552828 10.9648 11)" stroke="white"/>
<line y1="-0.5" x2="12.1256" y2="-0.5" transform="matrix(0.565564 -0.824704 0.833295 0.552828 60.7871 11)" stroke="white"/>
<line y1="-0.5" x2="12.1256" y2="-0.5" transform="matrix(0.565564 -0.824704 0.833295 0.552828 110.607 11)" stroke="white"/>
<line y1="-0.5" x2="12.1256" y2="-0.5" transform="matrix(0.565564 -0.824704 0.833295 0.552828 160.429 11)" stroke="white"/>
<line y1="-0.5" x2="12.1256" y2="-0.5" transform="matrix(0.565564 -0.824704 0.833295 0.552828 210.25 11)" stroke="white"/>
<line y1="-0.5" x2="12.1256" y2="-0.5" transform="matrix(0.565564 -0.824704 0.833295 0.552828 20.9297 11)" stroke="white"/>
<line y1="-0.5" x2="12.1256" y2="-0.5" transform="matrix(0.565564 -0.824704 0.833295 0.552828 70.751 11)" stroke="white"/>
<line y1="-0.5" x2="12.1256" y2="-0.5" transform="matrix(0.565564 -0.824704 0.833295 0.552828 120.572 11)" stroke="white"/>
<line y1="-0.5" x2="12.1256" y2="-0.5" transform="matrix(0.565564 -0.824704 0.833295 0.552828 170.393 11)" stroke="white"/>
<line y1="-0.5" x2="12.1256" y2="-0.5" transform="matrix(0.565564 -0.824704 0.833295 0.552828 220.215 11)" stroke="white"/>
<line y1="-0.5" x2="12.1256" y2="-0.5" transform="matrix(0.565564 -0.824704 0.833295 0.552828 30.8936 11)" stroke="white"/>
<line y1="-0.5" x2="12.1256" y2="-0.5" transform="matrix(0.565564 -0.824704 0.833295 0.552828 80.7148 11)" stroke="white"/>
<line y1="-0.5" x2="12.1256" y2="-0.5" transform="matrix(0.565564 -0.824704 0.833295 0.552828 130.537 11)" stroke="white"/>
<line y1="-0.5" x2="12.1256" y2="-0.5" transform="matrix(0.565564 -0.824704 0.833295 0.552828 180.358 11)" stroke="white"/>
<line y1="-0.5" x2="12.1256" y2="-0.5" transform="matrix(0.565564 -0.824704 0.833295 0.552828 230.179 11)" stroke="white"/>
<line y1="-0.5" x2="12.1256" y2="-0.5" transform="matrix(0.565564 -0.824704 0.833295 0.552828 40.8584 11)" stroke="white"/>
<line y1="-0.5" x2="12.1256" y2="-0.5" transform="matrix(0.565564 -0.824704 0.833295 0.552828 90.6797 11)" stroke="white"/>
<line y1="-0.5" x2="12.1256" y2="-0.5" transform="matrix(0.565564 -0.824704 0.833295 0.552828 140.501 11)" stroke="white"/>
<line y1="-0.5" x2="12.1256" y2="-0.5" transform="matrix(0.565564 -0.824704 0.833295 0.552828 190.322 11)" stroke="white"/>
<line y1="-0.5" x2="12.1256" y2="-0.5" transform="matrix(0.565564 -0.824704 0.833295 0.552828 240.143 11)" stroke="white"/>
</g>
</svg>
