<svg width="16" height="16" viewBox="0 0 16 16" fill="none" xmlns="http://www.w3.org/2000/svg">
<path d="M14 3.21423L13.0438 4.17705C12.9594 4.24354 12.9195 4.35188 12.9359 4.45777V11.5422C12.9195 11.6506 12.9594 11.7589 13.0438 11.8229L13.9813 12.7858V13H9.275V12.7956L10.243 11.8082C10.3391 11.7072 10.3391 11.6777 10.3391 11.5275V5.79488L7.64375 12.9754H7.28047L4.14453 5.79488V10.609C4.11641 10.8109 4.18438 11.0153 4.32031 11.1606L5.58125 12.7636V12.9778H2V12.7636L3.26094 11.1606C3.39566 11.0143 3.45651 10.8097 3.425 10.609V5.04383C3.44141 4.8887 3.38516 4.73849 3.27266 4.6326L2.15234 3.21423V3H5.63281L8.31875 9.19306L10.6836 3.00492H14V3.21423Z" fill="currentColor"/>
</svg>
