<svg width="32" height="32" viewBox="0 0 32 32" fill="none" xmlns="http://www.w3.org/2000/svg">
<circle cx="16" cy="16" r="16" fill="white"/>
<path d="M25.7171 5.6687L17.4609 12.1474L18.996 8.32937L25.7171 5.6687Z" fill="#E17726"/>
<path d="M6.67406 5.6687L14.8566 12.208L13.3951 8.32937L6.67406 5.6687ZM22.7456 20.6914L20.5487 24.25L25.2525 25.6234L26.5996 20.7687L22.7456 20.6914ZM5.80029 20.7687L7.13922 25.6234L11.8349 24.25L9.64674 20.6907L5.80029 20.7687Z" fill="#E27625"/>
<path d="M11.5815 14.6752L10.2759 16.7652L14.9307 16.9899L14.7754 11.6765L11.5815 14.6752ZM20.8094 14.6752L17.5677 11.6172L17.4615 16.9905L22.1163 16.7659L20.8094 14.6752ZM11.8348 24.2465L14.6522 22.8039L12.2271 20.7999L11.8348 24.2465ZM17.7393 22.8039L20.5486 24.2465L20.1651 20.7999L17.7393 22.8039Z" fill="#E27625"/>
<path d="M20.5472 24.2452L17.7374 22.8025L17.9668 24.7378L17.9417 25.5578L20.5472 24.2452ZM11.8335 24.2452L14.4466 25.5585L14.4303 24.7378L14.6509 22.8025L11.8335 24.2452Z" fill="#D5BFB2"/>
<path d="M14.4964 19.5249L12.1611 18.7992L13.8106 17.9954L14.4964 19.5249ZM17.894 19.5249L18.5792 17.9954L20.2375 18.7992L17.894 19.5249Z" fill="#233447"/>
<path d="M11.8356 24.2467L12.2442 20.688L9.64746 20.7654L11.8356 24.2467ZM20.149 20.688L20.5494 24.2467L22.7457 20.7654L20.149 20.688ZM22.1178 16.7654L17.4623 16.9907L17.8954 19.5214L18.5806 17.9927L20.2389 18.796L22.1178 16.7654ZM12.1625 18.796L13.812 17.9927L14.4978 19.5214L14.9309 16.9907L10.2761 16.766L12.1625 18.796Z" fill="#CC6228"/>
<path d="M10.2744 16.7654L12.2262 20.8L12.1609 18.796L10.2744 16.7654ZM20.2372 18.796L20.1637 20.8L22.1155 16.766L20.2372 18.796ZM14.9292 16.9907L14.4961 19.5214L15.043 22.5107L15.1662 18.5707L14.9292 16.9907ZM17.4606 16.9907L17.2318 18.5627L17.3462 22.5107L17.8931 19.5214L17.4606 16.9907Z" fill="#E27525"/>
<path d="M17.894 19.5264L17.3471 22.5157L17.7388 22.809L20.1639 20.805L20.2375 18.801L17.894 19.5264ZM12.1611 18.801L12.2265 20.805L14.6517 22.809L15.0439 22.5157L14.497 19.5264L12.1611 18.801Z" fill="#F5841F"/>
<path d="M17.9417 25.5614L17.9668 24.7403L17.7543 24.5502H14.6346L14.4303 24.7403L14.4466 25.5607L11.8335 24.2473L12.7481 25.0424L14.6025 26.3999H17.7789L19.6408 25.0424L20.5472 24.2473L17.9417 25.5614Z" fill="#C0AC9D"/>
<path d="M17.7396 22.8058L17.3473 22.5125H15.0454L14.6531 22.8058L14.4331 24.7411L14.6368 24.5511H17.7565L17.969 24.7411L17.7396 22.8058Z" fill="#161616"/>
<path d="M26.0703 12.5707L26.7636 8.99537L25.7189 5.6687L17.7406 11.9314L20.8114 14.678L25.1475 16.018L26.103 14.834L25.6862 14.514L26.3481 13.8754L25.8415 13.4607L26.5028 12.9247L26.0703 12.5707ZM5.62988 8.9947L6.33204 12.5707L5.88321 12.9254L6.55268 13.4607L6.04665 13.8754L6.70794 14.5147L6.29118 14.8347L7.24666 16.0174L11.5834 14.6787L14.6535 11.932L6.67526 5.6687L5.62988 8.9947Z" fill="#763E1A"/>
<path d="M25.1455 16.0154L20.8093 14.6767L22.1156 16.7674L20.1637 20.8014L22.7448 20.7667H26.5988L25.1455 16.0154ZM11.5808 14.6767L7.24462 16.0154L5.79883 20.7667H9.6459L12.2263 20.8014L10.2745 16.7674L11.5808 14.6767ZM17.4607 16.9921L17.7386 11.9294L18.9958 8.32739H13.3943L14.6515 11.9294L14.9293 16.9921L15.0356 18.5814L15.0437 22.5121H17.3463L17.3545 18.5814L17.4607 16.9921Z" fill="#F5841F"/>
</svg>
