<svg width="33" height="30" viewBox="0 0 33 30" fill="none" xmlns="http://www.w3.org/2000/svg">
<path d="M25.8771 0H14.4815L7.59668 7.1052L19.7045 7.36836L25.8771 0Z" fill="#ABF5B6"/>
<path d="M32.5251 7.36836L25.8777 0L19.7051 7.36836L26.3525 14.9999L32.5251 7.36836Z" fill="#7FC88A"/>
<path d="M13.0576 15.0002L19.705 7.36865L26.3524 15.0002L19.705 22.3685L13.0576 15.0002Z" fill="#6960FE"/>
<path d="M7.59704 7.10547L19.7048 7.36862L13.0574 15.0001H0L7.59704 7.10547Z" fill="#8982FF"/>
<path d="M7.35964 22.3684L0 15H13.0574L19.7048 22.3684H7.35964Z" fill="#5951DE"/>
<path d="M14.2786 30.0002L7.35834 22.3687H19.9419L26.3519 30.0002H14.2786Z" fill="#1D152C"/>
<path d="M26.3525 15L19.7051 22.3684L26.3525 29.9999L32.9999 22.3684L26.3525 15Z" fill="#4D4065"/>
</svg>
