<svg width="100" height="100" viewBox="0 0 100 100" fill="none" xmlns="http://www.w3.org/2000/svg">
<rect x="50" y="9.10355" width="57.8364" height="57.8364" transform="rotate(45 50 9.10355)" stroke="#6A67FE" stroke-width="0.5" stroke-dasharray="2 2"/>
<path d="M18.7505 21.8749L50.6252 50.6248M50.6252 50.6248L81.2502 21.875M50.6252 50.6248L81.2502 78.125M50.6252 50.6248L18.7502 76.8748" stroke="#83CF8E"/>
<rect x="50" y="20" width="42.4265" height="42.4265" transform="rotate(45 50 20)" fill="white"/>
<rect x="50" y="23.75" width="37.1232" height="37.1232" transform="rotate(45 50 23.75)" fill="#1D152C"/>
<path d="M37.9197 40.5414L41.2674 43.8158L43.5273 41.2599L40.3921 37.9607L40.7862 37.5L44.0213 38.1993L45.8384 40.1163L46.1788 42.8231L55.6588 53.1949L58.3538 53.5295L60.1146 55.4739L60.8517 58.7593L60.4269 59.1844L57.3326 55.9922L54.8346 58.7895L57.7011 62.0448L57.2763 62.5L54.0975 61.4963L52.4237 59.6095L52.1115 56.601L42.4601 46.38L39.3939 45.8041L37.7764 43.643L37.5 40.8924L37.9197 40.5414Z" fill="#83CF8E"/>
<path d="M50.1228 44.9731L53.4551 48.8646L56.1399 45.9439L58.7146 48.8646L62.4999 44.9731L56.0272 37.8346L51.9783 37.5L50.1228 39.4581L52.5823 42.3596L50.1228 44.9731ZM44.7716 50.676L48.268 54.4224L41.1939 62.0025L37.6973 58.2564L44.7716 50.676Z" fill="white"/>
<path d="M17.4997 15L24.9994 19.1003V27.301L17.1339 31.25L10 27.301V19.1003L17.4997 15Z" fill="#F1F1F1"/>
<mask id="mask0_678_5033" style="mask-type:alpha" maskUnits="userSpaceOnUse" x="10" y="15" width="16" height="17">
<path d="M17.5007 15.0004L25.0004 19.1007V27.3013L17.1349 31.2501L10.001 27.3013V19.1007L17.5007 15.0004Z" fill="#ECECEC"/>
</mask>
<g mask="url(#mask0_678_5033)">
<path d="M17.1348 31.8556V22.7718L25.4288 18.5327V27.6165L17.1348 31.8556Z" fill="#CFCECE"/>
<path d="M17.1348 22.7718L8.84082 18.5327L17.1348 14.2936L25.4288 18.8588L17.1348 22.7718Z" fill="white"/>
</g>
<path d="M82.4997 68.75L89.9994 72.8503V81.051L82.1339 85L75 81.051V72.8503L82.4997 68.75Z" fill="#F1F1F1"/>
<mask id="mask1_678_5033" style="mask-type:alpha" maskUnits="userSpaceOnUse" x="75" y="68" width="16" height="18">
<path d="M82.5007 68.7504L90.0004 72.8507V81.0513L82.1349 85.0001L75.001 81.0513V72.8507L82.5007 68.7504Z" fill="#ECECEC"/>
</mask>
<g mask="url(#mask1_678_5033)">
<path d="M82.1348 85.6056V76.5218L90.4288 72.2827V81.3665L82.1348 85.6056Z" fill="#CFCECE"/>
<path d="M82.1348 76.5218L73.8408 72.2827L82.1348 68.0436L90.4288 72.6088L82.1348 76.5218Z" fill="white"/>
</g>
<path d="M82.4997 15L89.9994 19.1003V27.301L82.1339 31.25L75 27.301V19.1003L82.4997 15Z" fill="#83CF8E"/>
<mask id="mask2_678_5033" style="mask-type:alpha" maskUnits="userSpaceOnUse" x="75" y="15" width="16" height="17">
<path d="M82.5007 15.0004L90.0004 19.1007V27.3013L82.1349 31.2501L75.001 27.3013V19.1007L82.5007 15.0004Z" fill="#83CF8E"/>
</mask>
<g mask="url(#mask2_678_5033)">
<path d="M82.1348 31.8556V22.7718L90.4288 18.5327V27.6165L82.1348 31.8556Z" fill="#6BAB74"/>
<path d="M82.1343 22.7718L73.8403 18.5327L82.1343 14.2936L90.4283 18.8588L82.1343 22.7718Z" fill="#9DE3A7"/>
</g>
<path d="M18.7497 68.75L26.2494 72.8503V81.051L18.3839 85L11.25 81.051V72.8503L18.7497 68.75Z" fill="#83CF8E"/>
<mask id="mask3_678_5033" style="mask-type:alpha" maskUnits="userSpaceOnUse" x="11" y="68" width="16" height="18">
<path d="M18.7507 68.7504L26.2504 72.8507V81.0513L18.3849 85.0001L11.251 81.0513V72.8507L18.7507 68.7504Z" fill="#83CF8E"/>
</mask>
<g mask="url(#mask3_678_5033)">
<path d="M18.3848 85.6056V76.5218L26.6788 72.2827V81.3665L18.3848 85.6056Z" fill="#6BAB74"/>
<path d="M18.3843 76.5218L10.0903 72.2827L18.3843 68.0436L26.6783 72.6088L18.3843 76.5218Z" fill="#9DE3A7"/>
</g>
</svg>
