<svg width="100" height="100" viewBox="0 0 100 100" fill="none" xmlns="http://www.w3.org/2000/svg">
<path d="M28.6799 17.9839C29.2257 17.6044 29.783 17.2379 30.3514 16.885L30.4833 17.0974C30.7643 16.9229 31.0481 16.7517 31.3347 16.584C31.6262 16.4132 31.9195 16.2467 32.2144 16.0844L32.0938 15.8654C32.6902 15.537 33.2932 15.2256 33.9021 14.9312L34.011 15.1562C34.6195 14.862 35.234 14.5848 35.8537 14.3247L35.7569 14.0942C36.3842 13.8309 37.0169 13.585 37.6542 13.3564L37.7386 13.5917C38.3743 13.3637 39.0147 13.1531 39.6591 12.9599L39.5873 12.7205C40.2384 12.5252 40.8934 12.3477 41.5517 12.1878L41.6107 12.4307C42.2667 12.2714 42.9259 12.1298 43.5876 12.0058L43.5416 11.76C44.2091 11.6349 44.8792 11.5277 45.5511 11.4383L45.5841 11.6861C46.2528 11.5971 46.9233 11.5259 47.595 11.4725L47.5751 11.2233C48.2517 11.1695 48.9295 11.1336 49.6075 11.1157L49.6142 11.3656C50.2881 11.3477 50.9623 11.3477 51.6362 11.3656L51.6428 11.1157C52.3209 11.1336 52.9986 11.1695 53.6752 11.2233L53.6554 11.4725C54.327 11.5259 54.9976 11.5971 55.6663 11.6861L55.6992 11.4383C56.3712 11.5277 57.0413 11.6349 57.7088 11.76L57.6628 12.0058C58.3245 12.1298 58.9837 12.2714 59.6396 12.4307L59.6986 12.1878C60.357 12.3477 61.012 12.5252 61.6631 12.7205L61.5913 12.9599C62.2356 13.1531 62.876 13.3637 63.5118 13.5917L63.5962 13.3564C64.2335 13.585 64.8661 13.8309 65.4935 14.0942L65.3967 14.3247C66.0164 14.5848 66.6309 14.862 67.2394 15.1562L67.3482 14.9312C67.9571 15.2256 68.5601 15.537 69.1566 15.8654L69.036 16.0844C69.3309 16.2467 69.6242 16.4132 69.9157 16.584C70.2022 16.7517 70.486 16.9229 70.7671 17.0974L70.899 16.885C71.4674 17.2379 72.0247 17.6044 72.5705 17.9839L72.4277 18.1892C72.9731 18.5684 73.5069 18.9607 74.0289 19.3656L74.1821 19.168C74.7104 19.5778 75.2266 20.0003 75.7305 20.4349L75.5672 20.6242C76.0698 21.0578 76.5599 21.5035 77.0373 21.9609L77.2103 21.7804C77.6926 22.2425 78.1621 22.7163 78.6182 23.2014L78.4361 23.3726C78.8906 23.8559 79.3318 24.3503 79.7594 24.8552L79.9502 24.6937C80.3815 25.203 80.7991 25.7231 81.2026 26.2532L81.0036 26.4046C81.4052 26.9322 81.7926 27.4697 82.1657 28.0168L82.3723 27.8759C82.7481 28.427 83.1095 28.9876 83.456 29.5572L83.2424 29.6871C83.5867 30.2531 83.9163 30.828 84.2308 31.4111L84.4508 31.2925C84.7673 31.8792 85.0685 32.4743 85.3541 33.0771L85.1282 33.1842C85.4118 33.7825 85.6799 34.3886 85.9323 35.0016L86.1635 34.9064C86.4171 35.5225 86.6549 36.1456 86.8765 36.7752L86.6407 36.8582C86.8605 37.4823 87.0642 38.1129 87.2516 38.7492L87.4914 38.6786C87.6795 39.3173 87.8512 39.9618 88.0063 40.6115L87.7631 40.6696C87.9166 41.3127 88.0536 41.9609 88.1739 42.6137L88.4197 42.5684C88.5403 43.2228 88.644 43.8818 88.7307 44.5447L88.4828 44.5771C88.5685 45.2321 88.6373 45.891 88.689 46.5532L88.9382 46.5338C88.99 47.1965 89.0247 47.8626 89.0421 48.5314L88.7922 48.5379C88.8008 48.8687 88.8051 49.2001 88.8051 49.5321V49.766H89.0551V50.234H88.8051V50.4679C88.8051 50.7999 88.8008 51.1313 88.7922 51.4621L89.0421 51.4686C89.0247 52.1374 88.99 52.8035 88.9382 53.4662L88.689 53.4468C88.6373 54.109 88.5685 54.7679 88.4828 55.4229L88.7307 55.4553C88.644 56.1182 88.5403 56.7772 88.4197 57.4316L88.1739 57.3863C88.0536 58.0391 87.9166 58.6873 87.7631 59.3304L88.0063 59.3884C87.8512 60.0382 87.6795 60.6827 87.4914 61.3214L87.2516 61.2508C87.0642 61.8871 86.8605 62.5177 86.6407 63.1418L86.8765 63.2248C86.6549 63.8544 86.4171 64.4775 86.1635 65.0936L85.9323 64.9984C85.6799 65.6114 85.4118 66.2174 85.1282 66.8158L85.3541 66.9229C85.0685 67.5257 84.7673 68.1207 84.4508 68.7075L84.2308 68.5889C83.9163 69.172 83.5867 69.7469 83.2424 70.3129L83.456 70.4428C83.1095 71.0124 82.7481 71.573 82.3723 72.1241L82.1657 71.9832C81.7926 72.5302 81.4052 73.0678 81.0036 73.5954L81.2026 73.7468C80.7991 74.2769 80.3815 74.797 79.9502 75.3063L79.7594 75.1447C79.3318 75.6497 78.8906 76.1441 78.4361 76.6273L78.6182 76.7986C78.1621 77.2837 77.6926 77.7575 77.2103 78.2196L77.0373 78.0391C76.5599 78.4964 76.0698 78.9422 75.5672 79.3758L75.7305 79.5651C75.2266 79.9997 74.7104 80.4222 74.1821 80.832L74.0289 80.6344C73.5069 81.0393 72.9731 81.4316 72.4277 81.8108L72.5705 82.0161C72.0247 82.3956 71.4674 82.7621 70.899 83.115L70.7671 82.9026C70.4861 83.0771 70.2022 83.2483 69.9157 83.416C69.6242 83.5868 69.3309 83.7533 69.036 83.9156L69.1566 84.1346C68.5602 84.463 67.9571 84.7744 67.3482 85.0688L67.2394 84.8438C66.6309 85.138 66.0164 85.4152 65.3967 85.6753L65.4935 85.9058C64.8661 86.1691 64.2335 86.4151 63.5962 86.6436L63.5118 86.4083C62.876 86.6363 62.2356 86.8469 61.5913 87.0401L61.6631 87.2795C61.012 87.4748 60.357 87.6523 59.6986 87.8122L59.6396 87.5693C58.9837 87.7286 58.3245 87.8702 57.6628 87.9942L57.7088 88.24C57.0413 88.3651 56.3712 88.4723 55.6992 88.5617L55.6663 88.3139C54.9976 88.4029 54.327 88.4741 53.6554 88.5275L53.6752 88.7767C52.9986 88.8305 52.3209 88.8664 51.6428 88.8843L51.6362 88.6344C50.9623 88.6523 50.2881 88.6523 49.6141 88.6344L49.6075 88.8843C48.9295 88.8664 48.2517 88.8305 47.5751 88.7767L47.595 88.5275C46.9233 88.4741 46.2528 88.4029 45.5841 88.3139L45.5511 88.5617C44.8792 88.4723 44.2091 88.3651 43.5416 88.24L43.5876 87.9942C42.9259 87.8702 42.2667 87.7286 41.6107 87.5693L41.5517 87.8122C40.8934 87.6523 40.2384 87.4748 39.5873 87.2795L39.6591 87.0401C39.0147 86.8469 38.3743 86.6363 37.7386 86.4083L37.6542 86.6436C37.0169 86.4151 36.3842 86.1691 35.7569 85.9058L35.8537 85.6753C35.234 85.4152 34.6195 85.138 34.011 84.8438L33.9021 85.0688C33.2932 84.7744 32.6902 84.463 32.0938 84.1346L32.2144 83.9156C31.9195 83.7533 31.6262 83.5868 31.3347 83.416C31.0481 83.2483 30.7643 83.0771 30.4833 82.9026L30.3514 83.115C29.783 82.7621 29.2257 82.3956 28.6799 82.0161L28.8226 81.8108C28.2773 81.4316 27.7435 81.0393 27.2215 80.6344L27.0683 80.832C26.54 80.4222 26.0237 79.9997 25.5199 79.5651L25.6832 79.3758C25.1806 78.9422 24.6905 78.4965 24.213 78.0391L24.0401 78.2196C23.5577 77.7575 23.0883 77.2837 22.6322 76.7986L22.8143 76.6274C22.3598 76.1441 21.9186 75.6497 21.491 75.1448L21.3002 75.3063C20.8689 74.797 20.4513 74.2769 20.0478 73.7468L20.2468 73.5954C19.8452 73.0678 19.4577 72.5303 19.0846 71.9832L18.8781 72.1241C18.5023 71.573 18.1409 71.0124 17.7944 70.4428L18.008 70.3129C17.6636 69.7469 17.3341 69.172 17.0196 68.5889L16.7996 68.7075C16.4831 68.1208 16.1819 67.5257 15.8962 66.9229L16.1222 66.8158C15.8386 66.2175 15.5704 65.6114 15.3181 64.9984L15.0869 65.0936C14.8333 64.4775 14.5955 63.8544 14.3738 63.2248L14.6097 63.1418C14.3899 62.5177 14.1862 61.8871 13.9988 61.2508L13.759 61.3214C13.5709 60.6827 13.3991 60.0382 13.2441 59.3885L13.4872 59.3304C13.3338 58.6873 13.1968 58.0391 13.0765 57.3863L12.8307 57.4316C12.7101 56.7772 12.6064 56.1182 12.5197 55.4553L12.7676 55.4229C12.6819 54.7679 12.6131 54.109 12.5614 53.4468L12.3121 53.4662C12.2604 52.8035 12.2257 52.1374 12.2083 51.4686L12.4582 51.4621C12.4496 51.1313 12.4453 50.7999 12.4453 50.4679V50.234H12.1953V49.766H12.4453V49.5321C12.4453 49.2001 12.4496 48.8687 12.4582 48.5379L12.2083 48.5314C12.2257 47.8626 12.2604 47.1965 12.3121 46.5338L12.5614 46.5532C12.6131 45.891 12.6819 45.2321 12.7676 44.5771L12.5197 44.5447C12.6063 43.8818 12.7101 43.2228 12.8307 42.5684L13.0765 42.6137C13.1967 41.9609 13.3338 41.3127 13.4872 40.6696L13.2441 40.6116C13.3991 39.9618 13.5709 39.3173 13.759 38.6786L13.9988 38.7492C14.1862 38.1129 14.3899 37.4823 14.6096 36.8582L14.3738 36.7752C14.5955 36.1456 14.8333 35.5225 15.0869 34.9064L15.318 35.0016C15.5704 34.3886 15.8386 33.7826 16.1222 33.1842L15.8962 33.0771C16.1819 32.4743 16.4831 31.8793 16.7995 31.2925L17.0196 31.4111C17.3341 30.828 17.6636 30.2531 18.008 29.6871L17.7944 29.5572C18.1409 28.9876 18.5023 28.427 18.8781 27.8759L19.0846 28.0168C19.4577 27.4698 19.8452 26.9322 20.2468 26.4046L20.0478 26.2532C20.4513 25.7231 20.8689 25.203 21.3002 24.6937L21.491 24.8552C21.9186 24.3503 22.3598 23.8559 22.8143 23.3727L22.6322 23.2014C23.0883 22.7163 23.5577 22.2425 24.0401 21.7804L24.213 21.9609C24.6905 21.5036 25.1806 21.0578 25.6832 20.6242L25.5199 20.4349C26.0237 20.0003 26.54 19.5778 27.0683 19.168L27.2215 19.3656C27.7435 18.9607 28.2773 18.5684 28.8226 18.1892L28.6799 17.9839Z" stroke="#83CF8E" stroke-width="0.5" stroke-dasharray="2 2"/>
<g filter="url(#filter0_i_678_5004)">
<circle cx="21.25" cy="18.75" r="7.5" fill="white"/>
</g>
<path d="M79.9143 11.25L87.3285 15.4581V23.8742L79.5526 27.927L72.5 23.8742V15.4581L79.9143 11.25Z" fill="#83CF8E"/>
<mask id="mask0_678_5004" style="mask-type:alpha" maskUnits="userSpaceOnUse" x="72" y="11" width="16" height="17">
<path d="M79.9148 11.2502L87.329 15.4583V23.8745L79.5531 27.927L72.5005 23.8745V15.4583L79.9148 11.2502Z" fill="#83CF8E"/>
</mask>
<g mask="url(#mask0_678_5004)">
<path d="M79.5532 28.5485V19.226L87.7527 14.8755V24.198L79.5532 28.5485Z" fill="#6BAB74"/>
<path d="M79.5525 19.2259L71.353 14.8754L79.5525 10.5249L87.7521 15.2101L79.5525 19.2259Z" fill="#9DE3A7"/>
</g>
<path d="M34.7172 22.4376C44.536 16.6618 56.714 16.6618 66.5328 22.4376C76.1159 28.0747 82 38.3626 82 49.4808V50.5192C82 61.6374 76.1159 71.9253 66.5328 77.5624C56.714 83.3382 44.536 83.3382 34.7172 77.5624C25.1341 71.9253 19.25 61.6374 19.25 50.5192V49.4808C19.25 38.3626 25.1341 28.0747 34.7172 22.4376Z" stroke="white"/>
<g filter="url(#filter1_i_678_5004)">
<circle cx="61.25" cy="81.25" r="7.5" fill="white"/>
</g>
<path d="M51.25 40.6414C51.9049 37.8833 54.5247 32.958 58.4544 35.9133C60.4192 37.6863 59.6333 41.5871 51.25 40.6414Z" fill="white"/>
<path d="M51.25 40.6414C50.5951 37.8833 47.9753 32.958 44.0456 35.9133C42.0808 37.6863 42.8667 41.5871 51.25 40.6414Z" fill="white"/>
<rect x="37.7085" y="46.632" width="27.0833" height="19.6181" fill="white"/>
<rect x="47.5" y="42.5" width="7.5" height="23.75" fill="#83CF8E"/>
<rect x="36.2036" y="42.1046" width="30.0926" height="6.03635" fill="#83CF8E"/>
<path d="M27.5 16.8751C29.1667 16.6668 33.5 17.1251 37.5 20.6251" stroke="#6A67FE"/>
<path d="M79.375 62.5C82.2917 66.875 86.625 77.125 80.625 83.125C78.9583 84.5833 74.125 86.875 68.125 84.375" stroke="#6A67FE"/>
<path d="M17.5 20.625C7.49988 43.125 38.1245 75.625 57.4996 80.625" stroke="#6A67FE"/>
<defs>
<filter id="filter0_i_678_5004" x="11.75" y="11.25" width="17" height="15" filterUnits="userSpaceOnUse" color-interpolation-filters="sRGB">
<feFlood flood-opacity="0" result="BackgroundImageFix"/>
<feBlend mode="normal" in="SourceGraphic" in2="BackgroundImageFix" result="shape"/>
<feColorMatrix in="SourceAlpha" type="matrix" values="0 0 0 0 0 0 0 0 0 0 0 0 0 0 0 0 0 0 127 0" result="hardAlpha"/>
<feOffset dx="-2"/>
<feGaussianBlur stdDeviation="1.5"/>
<feComposite in2="hardAlpha" operator="arithmetic" k2="-1" k3="1"/>
<feColorMatrix type="matrix" values="0 0 0 0 0.5625 0 0 0 0 0.550781 0 0 0 0 0.550781 0 0 0 1 0"/>
<feBlend mode="normal" in2="shape" result="effect1_innerShadow_678_5004"/>
</filter>
<filter id="filter1_i_678_5004" x="51.75" y="73.75" width="17" height="15" filterUnits="userSpaceOnUse" color-interpolation-filters="sRGB">
<feFlood flood-opacity="0" result="BackgroundImageFix"/>
<feBlend mode="normal" in="SourceGraphic" in2="BackgroundImageFix" result="shape"/>
<feColorMatrix in="SourceAlpha" type="matrix" values="0 0 0 0 0 0 0 0 0 0 0 0 0 0 0 0 0 0 127 0" result="hardAlpha"/>
<feOffset dx="-2"/>
<feGaussianBlur stdDeviation="1.5"/>
<feComposite in2="hardAlpha" operator="arithmetic" k2="-1" k3="1"/>
<feColorMatrix type="matrix" values="0 0 0 0 0.5625 0 0 0 0 0.550781 0 0 0 0 0.550781 0 0 0 1 0"/>
<feBlend mode="normal" in2="shape" result="effect1_innerShadow_678_5004"/>
</filter>
</defs>
</svg>
