<svg width="120" height="120" viewBox="0 0 120 120" fill="none" xmlns="http://www.w3.org/2000/svg">
<circle cx="60" cy="60" r="60" fill="url(#paint0_linear_1438_535)"/>
<path d="M41.475 42.0008L40.1508 32.4902L38.5229 31.8757L35.553 39.7652L30.8378 37.9852L38.3208 18.107L45.8988 20.9677C46.8531 21.3279 47.7405 21.7805 48.5611 22.3255C49.4075 22.8588 50.0982 23.4936 50.633 24.2299C51.1866 24.9734 51.5341 25.81 51.6756 26.7399C51.8171 27.6698 51.6729 28.7056 51.2431 29.8474C50.7357 31.1951 49.9446 32.1898 48.8696 32.8314C47.7946 33.4731 46.5376 33.7468 45.0985 33.6525L47.0884 44.1198L41.475 42.0008ZM46.4681 28.141C46.6442 27.6731 46.6822 27.2599 46.5821 26.9014C46.5077 26.5313 46.3397 26.2113 46.078 25.9415C45.842 25.66 45.5381 25.4171 45.1663 25.2126C44.8133 25.0151 44.459 24.8493 44.1034 24.7151L41.5494 23.751L39.8054 28.3836L42.0789 29.2418C42.4718 29.3901 42.8846 29.5139 43.3174 29.6132C43.7573 29.6937 44.1773 29.7133 44.5775 29.672C44.9777 29.6307 45.3406 29.4898 45.6662 29.2493C46.0106 29.0158 46.2778 28.6464 46.4681 28.141ZM66.339 43.3383C65.9092 44.4801 65.3123 45.4412 64.5484 46.2217C63.7914 46.9835 62.9342 47.5577 61.9765 47.9444C61.0259 48.3124 60.0159 48.4976 58.9465 48.5001C57.8771 48.5025 56.8091 48.3025 55.7425 47.8998C54.6947 47.5043 53.7606 46.9486 52.9402 46.2327C52.1385 45.5239 51.502 44.7171 51.0305 43.8123C50.5848 42.8958 50.3288 41.9013 50.2624 40.8287C50.2031 39.7374 50.3883 38.6209 50.8181 37.4791C51.2479 36.3373 51.8413 35.3856 52.5982 34.6238C53.3551 33.862 54.1995 33.2936 55.1314 32.9186C56.082 32.5506 57.0885 32.3747 58.1509 32.391C59.232 32.4143 60.2964 32.6237 61.3442 33.0193C62.4108 33.4219 63.3484 33.9683 64.1571 34.6584C64.9659 35.3484 65.606 36.1459 66.0774 37.0507C66.5489 37.9555 66.8178 38.9442 66.8842 40.0168C66.9505 41.0893 66.7688 42.1965 66.339 43.3383ZM61.9045 41.6642C62.0736 41.215 62.1643 40.7469 62.1767 40.2599C62.1891 39.7729 62.1148 39.3173 61.9539 38.8931C61.8001 38.4503 61.5561 38.0482 61.222 37.6869C60.8878 37.3256 60.4494 37.0425 59.9068 36.8377C59.3642 36.6328 58.8483 36.5557 58.3592 36.6062C57.87 36.6567 57.4217 36.7974 57.0142 37.0284C56.6324 37.2477 56.2857 37.5443 55.9739 37.9183C55.6809 38.2994 55.4498 38.7145 55.2807 39.1638C55.1116 39.613 55.0115 40.0776 54.9804 40.5575C54.9681 41.0445 55.0353 41.5188 55.1821 41.9804C55.3359 42.4233 55.5799 42.8254 55.914 43.1867C56.2482 43.548 56.6865 43.831 57.2292 44.0359C57.7718 44.2407 58.2877 44.3179 58.7768 44.2674C59.266 44.2169 59.7143 44.0762 60.1218 43.8452C60.5363 43.5955 60.8901 43.2801 61.1832 42.8991C61.4949 42.5251 61.7354 42.1135 61.9045 41.6642ZM77.1456 48.5081L76.5562 48.2856C76.051 48.0948 75.5259 47.9287 74.9808 47.787C74.4615 47.6338 73.9714 47.5449 73.5104 47.5206C73.0682 47.5033 72.6667 47.5762 72.3061 47.7393C71.9526 47.8838 71.6983 48.1619 71.5433 48.5737C71.4446 48.8357 71.4162 49.0815 71.458 49.3111C71.5185 49.5477 71.6212 49.7575 71.766 49.9404C71.9109 50.1234 72.0944 50.2888 72.3165 50.4368C72.5456 50.5661 72.7725 50.6731 72.997 50.7579C73.9325 51.111 74.7387 51.1268 75.4154 50.805C76.1179 50.4716 76.6348 49.8651 76.9659 48.9854L77.1456 48.5081ZM70.9488 39.3386C72.068 38.8632 73.2442 38.6339 74.4774 38.6505C75.7294 38.6742 76.926 38.9014 78.0674 39.3323C79.2462 39.7773 80.1815 40.3014 80.8734 40.9046C81.591 41.4962 82.0861 42.1962 82.3588 43.0046C82.6385 43.7942 82.7145 44.6994 82.5867 45.7201C82.4847 46.729 82.1941 47.8699 81.715 49.1427L79.0621 56.1899L74.8521 54.6007L75.4122 53.1126L75.328 53.0808C74.7541 53.5269 74.0424 53.7712 73.1928 53.814C72.362 53.8638 71.5256 53.7297 70.6836 53.4119C70.1223 53.2 69.5704 52.9061 69.0281 52.5303C68.4857 52.1546 68.0253 51.7029 67.6469 51.1752C67.2873 50.6547 67.0541 50.0536 66.9474 49.372C66.8407 48.6904 66.9423 47.9378 67.2524 47.1142C67.6329 46.1034 68.2107 45.3916 68.9858 44.9788C69.7797 44.573 70.6704 44.3641 71.6579 44.3521C72.6642 44.3472 73.7217 44.4899 74.8305 44.7802C75.9393 45.0705 76.9989 45.4064 78.0093 45.7878L78.0939 45.5632C78.3546 44.8706 78.3016 44.2734 77.9349 43.7716C77.5752 43.251 77.0399 42.8565 76.3289 42.5881C75.674 42.3409 74.985 42.2411 74.2618 42.2888C73.5574 42.3435 72.916 42.4862 72.3376 42.7168L70.9488 39.3386ZM93.0788 61.4813L93.7658 59.6563L93.7096 59.6351C92.9928 60.1769 92.1394 60.4853 91.1495 60.5606C90.1852 60.6241 89.2354 60.4793 88.2998 60.1261C87.252 59.7306 86.3939 59.1715 85.7256 58.4489C85.0574 57.7263 84.56 56.9187 84.2337 56.0258C83.933 55.1214 83.8021 54.1634 83.841 53.152C83.8798 52.1405 84.0824 51.1481 84.4488 50.1748C84.8152 49.2015 85.3137 48.3314 85.9443 47.5647C86.6006 46.7864 87.3362 46.1662 88.1512 45.7043C88.9849 45.2494 89.8781 44.9773 90.8306 44.888C91.8019 44.8057 92.7927 44.9553 93.8031 45.3367C94.8322 45.7252 95.6283 46.2502 96.1913 46.9117C96.7544 47.5731 97.1443 48.212 97.3611 48.8283L97.4172 48.8495L100.704 40.1177L105.307 41.8553L97.3169 63.0812L93.0788 61.4813ZM95.5527 54.3986C95.7218 53.9494 95.8032 53.4777 95.7968 52.9836C95.8092 52.4966 95.7291 52.0281 95.5566 51.5782C95.4027 51.1353 95.1588 50.7333 94.8246 50.372C94.4905 50.0107 94.0615 49.7311 93.5376 49.5334C92.9949 49.3285 92.479 49.2513 91.9899 49.3018C91.5007 49.3523 91.0524 49.4931 90.6449 49.724C90.2445 49.9363 89.8884 50.2294 89.5766 50.6034C89.2836 50.9845 89.0525 51.3996 88.8834 51.8488C88.7143 52.2981 88.6107 52.772 88.5725 53.2707C88.5602 53.7577 88.6309 54.2226 88.7847 54.6655C88.9386 55.1084 89.1825 55.5105 89.5167 55.8717C89.8508 56.233 90.2892 56.5161 90.8318 56.7209C91.3557 56.9187 91.8623 56.9924 92.3514 56.9419C92.8406 56.8914 93.2889 56.7506 93.6964 56.5197C94.1226 56.2958 94.4916 55.9968 94.8033 55.6228C95.1338 55.2559 95.3836 54.8478 95.5527 54.3986ZM39.0479 84.9086L41.9227 77.2718C42.0707 76.8787 42.1835 76.4938 42.2613 76.117C42.3461 75.7214 42.3629 75.3644 42.3119 75.0458C42.2609 74.7273 42.1325 74.4437 41.927 74.195C41.7471 73.9348 41.4514 73.7269 41.0397 73.5715C40.6468 73.4232 40.2689 73.3767 39.9062 73.4322C39.5621 73.4947 39.2343 73.6275 38.9228 73.8305C38.63 74.0407 38.3663 74.3153 38.1318 74.6543C37.9044 74.9746 37.7167 75.3313 37.5687 75.7244L34.7256 83.277L30.1227 81.5393L33.1243 73.5656C33.4273 72.7608 33.5078 72.0643 33.3659 71.4763C33.224 70.8883 32.8068 70.4636 32.1145 70.2022C31.3848 69.9268 30.7049 70.0014 30.0748 70.4263C29.4634 70.8582 28.9992 71.4953 28.6821 72.3376L25.8284 79.9183L21.1974 78.1701L26.4609 64.188L30.9235 65.8726L30.1943 67.8099L30.2504 67.8311C30.5315 67.5952 30.8466 67.3827 31.1955 67.1938C31.5632 67.0119 31.9635 66.8851 32.3965 66.8134C32.8366 66.723 33.2964 66.6936 33.7761 66.725C34.2745 66.7635 34.7857 66.8816 35.3096 67.0794C36.32 67.4608 37.0938 67.9881 37.6311 68.6613C38.1871 69.3415 38.5172 70.1394 38.6212 71.0552C39.3638 70.5018 40.181 70.1476 41.0728 69.9925C41.9646 69.8375 42.9344 69.9578 43.9822 70.3533C44.9365 70.7136 45.6648 71.1916 46.1671 71.7874C46.6951 72.3715 47.0499 73.0185 47.2315 73.7284C47.4201 74.4195 47.4682 75.1432 47.3759 75.8993C47.3093 76.6438 47.1528 77.3436 46.9061 77.9987L43.6508 86.6463L39.0479 84.9086ZM57.6714 84.9806L57.082 84.7581C56.5768 84.5674 56.0517 84.4013 55.5066 84.2596C54.9873 84.1064 54.4972 84.0175 54.0362 83.9932C53.594 83.9758 53.1926 84.0488 52.8319 84.2119C52.4784 84.3564 52.2241 84.6345 52.0691 85.0463C51.9704 85.3083 51.942 85.5541 51.9838 85.7837C52.0443 86.0203 52.147 86.2301 52.2919 86.413C52.4367 86.596 52.6202 86.7614 52.8423 86.9094C53.0714 87.0387 53.2983 87.1457 53.5228 87.2304C54.4584 87.5836 55.2645 87.5993 55.9412 87.2776C56.6437 86.9442 57.1606 86.3377 57.4917 85.4579L57.6714 84.9806ZM51.4746 75.8112C52.5938 75.3358 53.77 75.1065 55.0032 75.1231C56.2552 75.1467 57.4518 75.374 58.5932 75.8049C59.772 76.2499 60.7073 76.774 61.3992 77.3772C62.1168 77.9688 62.6119 78.6687 62.8846 79.4771C63.1643 80.2668 63.2403 81.172 63.1125 82.1926C63.0105 83.2016 62.7199 84.3425 62.2408 85.6153L59.5879 92.6625L55.3779 91.0732L55.9381 89.5852L55.8539 89.5534C55.2799 89.9994 54.5682 90.2438 53.7187 90.2866C52.8878 90.3363 52.0514 90.2023 51.2094 89.8844C50.6481 89.6725 50.0962 89.3787 49.5539 89.0029C49.0115 88.6272 48.5511 88.1755 48.1727 87.6478C47.8131 87.1273 47.5799 86.5262 47.4732 85.8446C47.3665 85.1629 47.4681 84.4103 47.7782 83.5868C48.1587 82.576 48.7365 81.8642 49.5116 81.4514C50.3055 81.0456 51.1962 80.8367 52.1837 80.8247C53.19 80.8198 54.2475 80.9625 55.3563 81.2528C56.4651 81.5431 57.5248 81.879 58.5352 82.2604L58.6197 82.0358C58.8804 81.3432 58.8274 80.746 58.4607 80.2442C58.1011 79.7236 57.5657 79.3291 56.8547 79.0607C56.1998 78.8135 55.5108 78.7137 54.7876 78.7614C54.0832 78.8161 53.4418 78.9588 52.8635 79.1894L51.4746 75.8112ZM81.2253 92.782C80.8589 93.7553 80.3569 94.6347 79.7193 95.4201C79.0817 96.2056 78.3425 96.8351 77.5018 97.3087C76.6868 97.7706 75.7901 98.0521 74.8118 98.1531C73.8335 98.2541 72.8204 98.1068 71.7726 97.7112C70.9119 97.3863 70.1614 96.9106 69.5211 96.2841C68.8878 95.6388 68.4687 94.9355 68.2638 94.1741L68.2077 94.1529L65.0897 102.435L60.4868 100.698L68.2869 79.9773L72.6653 81.6302L72.0206 83.3429L72.1048 83.3747C72.7465 82.9756 73.5191 82.7114 74.4226 82.5822C75.3518 82.4413 76.331 82.5651 77.3601 82.9536C78.3705 83.335 79.2134 83.8776 79.8887 84.5815C80.564 85.2854 81.0555 86.0802 81.3632 86.9659C81.6896 87.8587 81.8333 88.8109 81.7945 89.8223C81.7814 90.8221 81.5917 91.8087 81.2253 92.782ZM76.7627 91.0974C76.9318 90.6481 77.0225 90.18 77.0349 89.693C77.066 89.2131 77.0011 88.761 76.8402 88.3369C76.7051 87.901 76.4704 87.5025 76.1363 87.1412C75.8022 86.7799 75.3638 86.4968 74.8212 86.292C74.2972 86.0942 73.7907 86.0206 73.3016 86.0711C72.8124 86.1216 72.3547 86.2588 71.9285 86.4827C71.521 86.7137 71.152 87.0126 70.8216 87.3795C70.5098 87.7535 70.2694 88.1651 70.1003 88.6144C69.9312 89.0636 69.8404 89.5317 69.8281 90.0187C69.8344 90.5128 69.9145 90.9813 70.0683 91.4242C70.2409 91.8741 70.4942 92.2797 70.8284 92.641C71.1625 93.0023 71.5915 93.2818 72.1154 93.4796C72.6581 93.6844 73.1739 93.7616 73.6631 93.7111C74.1522 93.6606 74.5912 93.5164 74.98 93.2783C75.3875 93.0474 75.7378 92.7413 76.0308 92.3603C76.3496 91.9676 76.5936 91.5466 76.7627 91.0974Z" fill="#1D152C"/>
<defs>
<linearGradient id="paint0_linear_1438_535" x1="-6.80219" y1="60" x2="102.267" y2="60" gradientUnits="userSpaceOnUse">
<stop offset="0.00939975" stop-color="#6960FE"/>
<stop offset="1" stop-color="#66C474"/>
</linearGradient>
</defs>
</svg>
