<svg width="50" height="50" viewBox="0 0 50 50" fill="none" xmlns="http://www.w3.org/2000/svg">
<circle cx="25" cy="25" r="25" fill="url(#paint0_linear_1251_344)"/>
<path d="M36.8595 23.3141C36.6353 22.7707 35.9931 22.537 35.4721 22.8091L31.2141 25.0334C30.4435 25.4359 30.5181 26.5621 31.3351 26.8595L32.1746 27.165C32.6806 27.3492 32.9552 27.9041 32.7345 28.3952C31.928 30.1892 30.5435 31.6708 28.7952 32.5853C26.7622 33.6488 24.4027 33.8591 22.2326 33.1702C21.2346 32.8 20.3299 32.2216 19.5752 31.4758C19.2419 31.1465 18.7382 31.0326 18.3196 31.2429L17.3466 31.7318C16.8055 32.0037 16.6261 32.6936 17.0213 33.1524C18.1411 34.4524 19.5693 35.4531 21.1818 36.057C22.6197 36.5173 24.1359 36.6852 25.6434 36.5513C27.1509 36.4174 28.6202 35.9842 29.967 35.2766C31.3138 34.569 32.5116 33.6009 33.4917 32.4278C34.249 31.5214 34.8649 30.5064 35.3196 29.4186C35.5389 28.894 36.1239 28.6024 36.6581 28.7969L37.4251 29.0761C38.2421 29.3734 39.0231 28.5586 38.6916 27.755L36.8595 23.3141ZM18.4766 22.1793C17.9706 21.9952 17.6959 21.4403 17.9167 20.9491C18.7232 19.1551 20.1077 17.6736 21.856 16.7591C23.889 15.6956 26.2485 15.4853 28.4186 16.1742C29.4166 16.5444 30.3213 17.1227 31.076 17.8686C31.4092 18.1979 31.9129 18.3118 32.3315 18.1015L33.3046 17.6125C33.8457 17.3407 34.0251 16.6508 33.6299 16.192C32.5101 14.8919 31.0819 13.8913 29.4693 13.2873C28.0315 12.8271 26.5153 12.6591 25.0078 12.793C23.5002 12.927 22.031 13.3601 20.6842 14.0677C19.3374 14.7753 18.1396 15.7434 17.1595 16.9165C16.4022 17.823 15.7863 18.838 15.3316 19.9258C15.1123 20.4503 14.5273 20.7419 13.9931 20.5475L13.226 20.2683C12.4091 19.971 11.6281 20.7857 11.9596 21.5894L13.7917 26.0303C14.0159 26.5736 14.6581 26.8074 15.1791 26.5352L19.4371 24.311C20.2077 23.9085 20.133 22.7823 19.3161 22.4849L18.4766 22.1793Z" fill="currentColor"/>
<defs>
<linearGradient id="paint0_linear_1251_344" x1="25" y1="0" x2="25" y2="50" gradientUnits="userSpaceOnUse">
<stop stop-color="#83CF8E"/>
<stop offset="1" stop-color="#6960FE"/>
</linearGradient>
</defs>
</svg>
