<svg width="16" height="16" viewBox="0 0 16 16" fill="none" xmlns="http://www.w3.org/2000/svg">
<path d="M12.8469 13.2692L14.9592 3.09581C15.0454 2.66519 14.9951 2.3569 14.8083 2.17095C14.6215 1.985 14.3748 1.95075 14.0683 2.06819L1.65322 6.9567C1.37541 7.06436 1.18622 7.18669 1.08563 7.32371C0.985048 7.46072 0.973074 7.5904 1.04971 7.71273C1.12635 7.83507 1.27962 7.93049 1.50953 7.999L4.68513 9.01193L12.0566 4.27022C12.2577 4.13321 12.411 4.10385 12.5164 4.18214C12.5834 4.23108 12.5643 4.30448 12.4589 4.40235L6.49566 9.90742L6.26575 13.2545C6.48608 13.2545 6.70162 13.1469 6.91237 12.9315L8.46425 11.4048L11.683 13.827C12.2961 14.1794 12.684 13.9934 12.8469 13.2692Z" fill="currentColor"/>
</svg>
