<svg width="100" height="100" viewBox="0 0 100 100" fill="none" xmlns="http://www.w3.org/2000/svg">
<path d="M22.8574 33.3513L50.1515 50.0251M50.1515 50.0251L78.3225 32.7567M50.1515 50.0251V79.3166" stroke="#83CF8E"/>
<path d="M36.0111 31.2761C36.5385 30.8657 37.0858 30.4763 37.6522 30.1095L37.7881 30.3194C38.0661 30.1393 38.3488 29.9647 38.6361 29.7958C38.93 29.623 39.2267 29.4573 39.5261 29.2986L39.409 29.0777C40.019 28.7544 40.6399 28.46 41.2697 28.1947L41.3667 28.4251C41.9955 28.1601 42.6332 27.9244 43.2779 27.7178L43.2016 27.4797C43.8576 27.2696 44.5207 27.0893 45.189 26.9389L45.2439 27.1828C45.908 27.0333 46.5773 26.9137 47.2496 26.8239L47.2165 26.5761C47.898 26.4851 48.5827 26.4244 49.2683 26.3941L49.2794 26.6438C49.9582 26.6138 50.6381 26.6138 51.317 26.6438L51.3281 26.3941C52.0137 26.4244 52.6984 26.4851 53.3798 26.5761L53.3468 26.8239C54.0191 26.9137 54.6883 27.0333 55.3525 27.1828L55.4074 26.9389C56.0756 27.0893 56.7388 27.2696 57.3948 27.4797L57.3185 27.7178C57.9632 27.9244 58.6009 28.1601 59.2296 28.4251L59.3267 28.1947C59.9565 28.46 60.5774 28.7544 61.1874 29.0777L61.0703 29.2986C61.3697 29.4573 61.6664 29.623 61.9603 29.7958C62.2476 29.9647 62.5303 30.1393 62.8083 30.3194L62.9442 30.1095C63.5106 30.4763 64.0579 30.8657 64.5853 31.2761L64.4317 31.4734C64.958 31.883 65.4642 32.3137 65.9494 32.7639L66.1195 32.5807C66.613 33.0387 67.0851 33.5167 67.5347 34.0131L67.3494 34.1809C67.7962 34.6741 68.2206 35.1856 68.6216 35.7137L68.8207 35.5625C69.2271 36.0978 69.6099 36.6501 69.9679 37.2175L69.7565 37.3509C70.111 37.9128 70.441 38.4897 70.7457 39.08L70.9678 38.9654C71.2755 39.5617 71.5576 40.1715 71.813 40.7932L71.5817 40.8882C71.8338 41.5016 72.0596 42.1266 72.2583 42.7617L72.4969 42.6871C72.6969 43.3263 72.8697 43.9755 73.0143 44.6331L72.7701 44.6868C72.9123 45.3333 73.0271 45.9879 73.1133 46.6492L73.3612 46.6168C73.4477 47.2795 73.506 47.9486 73.5351 48.6228L73.2854 48.6335C73.2997 48.9645 73.3069 49.2967 73.3069 49.6299V49.815H73.5569V50.185H73.3069V50.37C73.3069 50.7033 73.2997 51.0355 73.2854 51.3664L73.5351 51.3772C73.506 52.0514 73.4477 52.7205 73.3612 53.3832L73.1133 53.3508C73.0271 54.0121 72.9123 54.6667 72.7701 55.3132L73.0143 55.3669C72.8697 56.0245 72.6969 56.6737 72.4969 57.3129L72.2583 57.2383C72.0596 57.8733 71.8338 58.4984 71.5817 59.1118L71.813 59.2068C71.5576 59.8285 71.2755 60.4383 70.9678 61.0346L70.7457 60.92C70.441 61.5103 70.111 62.0872 69.7565 62.6491L69.9679 62.7825C69.6099 63.3499 69.2271 63.9021 68.8207 64.4374L68.6216 64.2863C68.2206 64.8144 67.7962 65.3259 67.3494 65.8191L67.5347 65.9869C67.0851 66.4833 66.613 66.9613 66.1195 67.4193L65.9494 67.236C65.4642 67.6863 64.958 68.117 64.4317 68.5266L64.5853 68.7238C64.0579 69.1343 63.5106 69.5236 62.9442 69.8904L62.8083 69.6806C62.5303 69.8607 62.2476 70.0353 61.9603 70.2042C61.6664 70.377 61.3697 70.5427 61.0703 70.7014L61.1874 70.9223C60.5774 71.2456 59.9565 71.5399 59.3267 71.8053L59.2296 71.5749C58.6009 71.8399 57.9632 72.0756 57.3185 72.2822L57.3948 72.5202C56.7388 72.7304 56.0756 72.9107 55.4074 73.0611L55.3525 72.8172C54.6883 72.9667 54.0191 73.0863 53.3468 73.1761L53.3798 73.4239C52.6984 73.5149 52.0137 73.5756 51.3281 73.6059L51.317 73.3562C50.6381 73.3862 49.9582 73.3862 49.2794 73.3562L49.2683 73.6059C48.5827 73.5756 47.898 73.5149 47.2165 73.4239L47.2496 73.1761C46.5773 73.0863 45.908 72.9667 45.2439 72.8172L45.189 73.0611C44.5207 72.9107 43.8576 72.7304 43.2016 72.5202L43.2779 72.2822C42.6332 72.0756 41.9955 71.8399 41.3667 71.5749L41.2697 71.8053C40.6399 71.5399 40.019 71.2456 39.409 70.9223L39.5261 70.7014C39.2267 70.5427 38.93 70.377 38.6361 70.2042C38.3488 70.0353 38.0661 69.8607 37.7881 69.6806L37.6522 69.8904C37.0858 69.5236 36.5385 69.1343 36.0111 68.7238L36.1647 68.5266C35.6384 68.117 35.1322 67.6863 34.647 67.236L34.4769 67.4193C33.9834 66.9613 33.5113 66.4833 33.0617 65.9869L33.2469 65.8191C32.8002 65.3259 32.3758 64.8144 31.9748 64.2863L31.7757 64.4374C31.3693 63.9021 30.9865 63.3499 30.6285 62.7825L30.8399 62.6491C30.4854 62.0872 30.1554 61.5103 29.8507 60.92L29.6286 61.0346C29.3209 60.4383 29.0388 59.8285 28.7834 59.2068L29.0147 59.1118C28.7626 58.4984 28.5368 57.8733 28.3381 57.2383L28.0995 57.3129C27.8995 56.6737 27.7267 56.0245 27.5821 55.3669L27.8263 55.3132C27.6841 54.6667 27.5693 54.0121 27.483 53.3508L27.2351 53.3832C27.1487 52.7205 27.0904 52.0514 27.0613 51.3772L27.311 51.3664C27.2967 51.0355 27.2895 50.7033 27.2895 50.37V50.185H27.0395V49.815H27.2895V49.6299C27.2895 49.2967 27.2967 48.9645 27.311 48.6335L27.0613 48.6228C27.0904 47.9486 27.1487 47.2795 27.2351 46.6168L27.483 46.6492C27.5693 45.9879 27.6841 45.3333 27.8263 44.6868L27.5821 44.6331C27.7267 43.9755 27.8995 43.3263 28.0995 42.6871L28.3381 42.7617C28.5368 42.1266 28.7626 41.5016 29.0147 40.8882L28.7834 40.7932C29.0388 40.1715 29.3209 39.5617 29.6286 38.9654L29.8507 39.08C30.1554 38.4897 30.4854 37.9128 30.8399 37.3509L30.6285 37.2175C30.9865 36.6501 31.3693 36.0978 31.7757 35.5625L31.9748 35.7137C32.3758 35.1856 32.8002 34.6741 33.2469 34.1809L33.0617 34.0131C33.5113 33.5167 33.9834 33.0387 34.4769 32.5807L34.647 32.7639C35.1322 32.3137 35.6384 31.883 36.1647 31.4734L36.0111 31.2761Z" stroke="#83CF8E" stroke-width="0.5" stroke-dasharray="2 2"/>
<path d="M50.4521 19.908L50.4521 49.9999M50.4521 49.9999L76.5712 68.4324M50.4521 49.9999L24.025 68.4323" stroke="#6A67FE"/>
<path d="M17.5748 22.0627L24.553 26.0661V34.0728L17.2344 37.9284L10.5967 34.0728V26.0661L17.5748 22.0627Z" fill="#6BAB74"/>
<mask id="mask0_678_4945" style="mask-type:alpha" maskUnits="userSpaceOnUse" x="10" y="22" width="15" height="16">
<path d="M17.5748 22.063L24.553 26.0663V34.073L17.2344 37.9284L10.5967 34.073V26.0663L17.5748 22.063Z" fill="#83CF8E"/>
</mask>
<g mask="url(#mask0_678_4945)">
<path d="M17.2344 38.5196V29.6507L24.9516 25.5118V34.3808L17.2344 38.5196Z" fill="#83CF8E"/>
<path d="M17.2348 29.6506L9.51758 25.5118L17.2348 21.3729L24.952 25.8301L17.2348 29.6506Z" fill="#9DE3A7"/>
</g>
<path d="M50.9449 78.1342L57.9231 82.1375V90.1442L50.6046 93.9998L43.9668 90.1442V82.1375L50.9449 78.1342Z" fill="#80C88B"/>
<mask id="mask1_678_4945" style="mask-type:alpha" maskUnits="userSpaceOnUse" x="43" y="78" width="15" height="16">
<path d="M50.9449 78.1345L57.9231 82.1379V90.1446L50.6046 93.9999L43.9668 90.1446V82.1379L50.9449 78.1345Z" fill="#83CF8E"/>
</mask>
<g mask="url(#mask1_678_4945)">
<path d="M50.6045 94.5911V85.7221L58.3217 81.5833V90.4522L50.6045 94.5911Z" fill="#6BAB74"/>
<path d="M50.6039 85.722L42.8867 81.5832L50.6039 77.4443L58.3211 81.9016L50.6039 85.722Z" fill="#9DE3A7"/>
</g>
<path d="M82.9934 64.2701L89.9995 68.171V75.9727L82.6517 79.7296L75.9873 75.9727V68.171L82.9934 64.2701Z" fill="#F1F1F1"/>
<mask id="mask2_678_4945" style="mask-type:alpha" maskUnits="userSpaceOnUse" x="75" y="64" width="16" height="16">
<path d="M82.9944 64.2705L90.0005 68.1714V75.973L82.6527 79.7297L75.9883 75.973V68.1714L82.9944 64.2705Z" fill="#ECECEC"/>
</mask>
<g mask="url(#mask2_678_4945)">
<path d="M82.6523 80.3057V71.6639L90.4005 67.631V76.2729L82.6523 80.3057Z" fill="#CFCECE"/>
<path d="M82.6515 71.6638L74.9033 67.6309L82.6515 63.598L90.3996 67.9411L82.6515 71.6638Z" fill="white"/>
</g>
<path d="M17.6028 64.2701L24.6089 68.171V75.9727L17.2611 79.7296L10.5967 75.9727V68.171L17.6028 64.2701Z" fill="#F1F1F1"/>
<mask id="mask3_678_4945" style="mask-type:alpha" maskUnits="userSpaceOnUse" x="10" y="64" width="15" height="16">
<path d="M17.6028 64.2704L24.6089 68.1712V75.9729L17.2611 79.7295L10.5967 75.9729V68.1712L17.6028 64.2704Z" fill="#ECECEC"/>
</mask>
<g mask="url(#mask3_678_4945)">
<path d="M17.2617 80.3057V71.6639L25.0099 67.631V76.2729L17.2617 80.3057Z" fill="#CFCECE"/>
<path d="M17.2608 71.6638L9.5127 67.6309L17.2608 63.598L25.009 67.9411L17.2608 71.6638Z" fill="white"/>
</g>
<path d="M50.2701 6L57.2483 10.0033V18.01L49.9298 21.8657L43.292 18.01V10.0033L50.2701 6Z" fill="#F1F1F1"/>
<mask id="mask4_678_4945" style="mask-type:alpha" maskUnits="userSpaceOnUse" x="43" y="6" width="15" height="16">
<path d="M50.2711 6.00024L57.2493 10.0036V18.0103L49.9307 21.8656L43.293 18.0103V10.0036L50.2711 6.00024Z" fill="#ECECEC"/>
</mask>
<g mask="url(#mask4_678_4945)">
<path d="M49.9307 22.4569V13.5879L57.6479 9.4491V18.3181L49.9307 22.4569Z" fill="#CFCECE"/>
<path d="M49.9311 13.5879L42.2139 9.44903L49.9311 5.31018L57.6483 9.7674L49.9311 13.5879Z" fill="white"/>
</g>
<path d="M83.0211 22.0627L89.9993 26.0661V34.0728L82.6807 37.9284L76.043 34.0728V26.0661L83.0211 22.0627Z" fill="#83CF8E"/>
<mask id="mask5_678_4945" style="mask-type:alpha" maskUnits="userSpaceOnUse" x="76" y="22" width="14" height="16">
<path d="M83.0221 22.0631L90.0002 26.0665V34.0732L82.6817 37.9285L76.0439 34.0732V26.0665L83.0221 22.0631Z" fill="#83CF8E"/>
</mask>
<g mask="url(#mask5_678_4945)">
<path d="M82.6816 38.5196V29.6507L90.3988 25.5118V34.3808L82.6816 38.5196Z" fill="#6BAB74"/>
<path d="M82.6811 29.6506L74.9639 25.5118L82.6811 21.3729L90.3983 25.8301L82.6811 29.6506Z" fill="#9DE3A7"/>
</g>
<ellipse cx="50.2985" cy="49.9999" rx="17.5153" ry="17.8378" fill="white"/>
<ellipse cx="50.2981" cy="50" rx="15.1799" ry="15.4594" fill="#C9C8CA"/>
<ellipse cx="49.8446" cy="50.0811" rx="12.8446" ry="13.0811" fill="white"/>
<path d="M54.0286 56.3999H50L52.3 50.7999H56.3L54.0286 56.3999Z" fill="#1D152C"/>
<path d="M56.6065 49.8H52.5996L53.1734 48.4H57.1745L56.6065 49.8Z" fill="#1D152C"/>
<path fill-rule="evenodd" clip-rule="evenodd" d="M46.6753 44L46.6752 44.0001H46.2L41 56.4001H42.0001L42.0001 56.4001H48.9103L50.3103 53.0001H46.3443L48.619 47.4H57.5903L58.9999 44H46.6753Z" fill="#1D152C"/>
</svg>
