<svg width="100" height="100" viewBox="0 0 100 100" fill="none" xmlns="http://www.w3.org/2000/svg">
<path d="M16.25 31.25L49.8434 50.0264M49.8434 50.0264L83.125 31.25M49.8434 50.0264V83.75" stroke="#83CF8E"/>
<path d="M49.375 21.25L74.8145 35.625V64.375L49.375 78.75L23.9355 64.375V35.625L49.375 21.25Z" fill="white"/>
<path d="M49.375 23.75L72.6494 36.875V63.125L49.375 76.25L26.1006 63.125V36.875L49.375 23.75Z" fill="#1D152C"/>
<path d="M50.5732 49.6382L56.8662 53.2441V60.456L50.2663 63.9289L44.2803 60.456V53.2441L50.5732 49.6382Z" fill="#F1F1F1"/>
<mask id="mask0_678_4873" style="mask-type:alpha" maskUnits="userSpaceOnUse" x="44" y="49" width="13" height="15">
<path d="M50.5732 49.6384L56.8662 53.2444V60.4562L50.2663 63.9289L44.2803 60.4562V53.2444L50.5732 49.6384Z" fill="#ECECEC"/>
</mask>
<g mask="url(#mask0_678_4873)">
<path d="M50.2666 64.4614V56.4729L57.226 52.7449V60.7334L50.2666 64.4614Z" fill="#E2E2E2"/>
<path d="M50.2661 56.4729L43.3066 52.7449L50.2661 49.017L57.2255 53.0317L50.2661 56.4729Z" fill="white"/>
</g>
<path d="M50.5732 41.0691L56.8662 44.675V51.8869L50.2663 55.3598L44.2803 51.8869V44.675L50.5732 41.0691Z" fill="#F1F1F1"/>
<mask id="mask1_678_4873" style="mask-type:alpha" maskUnits="userSpaceOnUse" x="44" y="41" width="13" height="15">
<path d="M50.5732 41.0693L56.8662 44.6753V51.8871L50.2663 55.3598L44.2803 51.8871V44.6753L50.5732 41.0693Z" fill="#ECECEC"/>
</mask>
<g mask="url(#mask1_678_4873)">
<path d="M50.2666 55.8923V47.9038L57.226 44.1758V52.1643L50.2666 55.8923Z" fill="#E2E2E2"/>
<path d="M50.2661 47.9038L43.3066 44.1759L50.2661 40.4479L57.2255 44.4626L50.2661 47.9038Z" fill="white"/>
</g>
<path d="M50.5732 32.5L56.8662 36.1059V43.3178L50.2663 46.7907L44.2803 43.3178V36.1059L50.5732 32.5Z" fill="#F1F1F1"/>
<mask id="mask2_678_4873" style="mask-type:alpha" maskUnits="userSpaceOnUse" x="44" y="32" width="13" height="15">
<path d="M50.5732 32.5002L56.8662 36.1062V43.318L50.2663 46.7907L44.2803 43.318V36.1062L50.5732 32.5002Z" fill="#ECECEC"/>
</mask>
<g mask="url(#mask2_678_4873)">
<path d="M50.2666 47.3232V39.3347L57.226 35.6067V43.5952L50.2666 47.3232Z" fill="#E2E2E2"/>
<path d="M50.2661 39.3347L43.3066 35.6068L50.2661 31.8788L57.2255 35.8935L50.2661 39.3347Z" fill="white"/>
</g>
<path d="M39.996 50.7094L46.2419 54.3153V61.5272L39.6913 65L33.75 61.5272V54.3153L39.996 50.7094Z" fill="#83CF8E"/>
<mask id="mask3_678_4873" style="mask-type:alpha" maskUnits="userSpaceOnUse" x="33" y="50" width="14" height="16">
<path d="M39.9969 50.7097L46.2429 54.3157V61.5275L39.6923 65.0001L33.751 61.5275V54.3157L39.9969 50.7097Z" fill="#83CF8E"/>
</mask>
<g mask="url(#mask3_678_4873)">
<path d="M39.6924 65.5327V57.5441L46.5999 53.8162V61.8047L39.6924 65.5327Z" fill="#6BAB74"/>
<path d="M39.6917 57.5442L32.7842 53.8162L39.6917 50.0883L46.5991 54.103L39.6917 57.5442Z" fill="#9DE3A7"/>
</g>
<path d="M39.996 42.1401L46.2419 45.7461V52.9579L39.6913 56.4308L33.75 52.9579V45.7461L39.996 42.1401Z" fill="#83CF8E"/>
<mask id="mask4_678_4873" style="mask-type:alpha" maskUnits="userSpaceOnUse" x="33" y="42" width="14" height="15">
<path d="M39.9969 42.1405L46.2429 45.7464V52.9583L39.6923 56.4309L33.751 52.9583V45.7464L39.9969 42.1405Z" fill="#83CF8E"/>
</mask>
<g mask="url(#mask4_678_4873)">
<path d="M39.6924 56.9633V48.9748L46.5999 45.2468V53.2354L39.6924 56.9633Z" fill="#6BAB74"/>
<path d="M39.6917 48.975L32.7842 45.247L39.6917 41.519L46.5991 45.5338L39.6917 48.975Z" fill="#9DE3A7"/>
</g>
<path d="M60.0038 50.7094L66.2497 54.3153V61.5272L59.6991 65L53.7578 61.5272V54.3153L60.0038 50.7094Z" fill="#83CF8E"/>
<mask id="mask5_678_4873" style="mask-type:alpha" maskUnits="userSpaceOnUse" x="53" y="50" width="14" height="16">
<path d="M60.0047 50.7098L66.2507 54.3158V61.5276L59.7001 65.0003L53.7588 61.5276V54.3158L60.0047 50.7098Z" fill="#83CF8E"/>
</mask>
<g mask="url(#mask5_678_4873)">
<path d="M59.7002 65.5327V57.5441L66.6077 53.8162V61.8047L59.7002 65.5327Z" fill="#6BAB74"/>
<path d="M59.6995 57.5443L52.792 53.8164L59.6995 50.0884L66.6069 54.1031L59.6995 57.5443Z" fill="#9DE3A7"/>
</g>
<path d="M46.681 6.53409L48.477 5.51136L48.6007 5.72861L49.375 5.28769L50.1493 5.72861L50.273 5.51136L52.069 6.53409L51.9453 6.75134L53.7413 7.77406L53.865 7.55682L55.6611 8.57954L55.5374 8.79679L57.3334 9.81952L57.4571 9.60227L59.2531 10.625L59.1294 10.8422L60.9254 11.865L61.0491 11.6477L62.8451 12.6705L62.7214 12.8877L64.5175 13.9104L64.6412 13.6932L66.4372 14.7159L66.3135 14.9332L68.1095 15.9559L68.2332 15.7386L70.0292 16.7614L69.9055 16.9786L71.7015 18.0013L71.8252 17.7841L73.6213 18.8068L73.4975 19.0241L75.2936 20.0468L75.4173 19.8295L77.2133 20.8523L77.0896 21.0695L78.8856 22.0922L79.0093 21.875L80.8053 22.8977L80.6816 23.115L82.4776 24.1377L82.6013 23.9205L84.3974 24.9432L84.2737 25.1604L86.0697 26.1832L86.1934 25.9659L87.9894 26.9886L87.8657 27.2059L88.6374 27.6453V28.5227H88.8874V30.5682H88.6374V32.6136H88.8874V34.6591H88.6374V36.7045H88.8874V38.75H88.6374V40.7955H88.8874V42.8409H88.6374V44.8864H88.8874V46.9318H88.6374V48.9773H88.8874V51.0227H88.6374V53.0682H88.8874V55.1136H88.6374V57.1591H88.8874V59.2045H88.6374V61.25H88.8874V63.2955H88.6374V65.3409H88.8874V67.3864H88.6374V69.4318H88.8874V71.4773H88.6374V72.3547L87.8657 72.7941L87.9894 73.0114L86.1934 74.0341L86.0697 73.8168L84.2737 74.8396L84.3974 75.0568L82.6013 76.0795L82.4776 75.8623L80.6816 76.885L80.8053 77.1023L79.0093 78.125L78.8856 77.9078L77.0896 78.9305L77.2133 79.1477L75.4173 80.1705L75.2936 79.9532L73.4975 80.9759L73.6212 81.1932L71.8252 82.2159L71.7015 81.9987L69.9055 83.0214L70.0292 83.2386L68.2332 84.2614L68.1095 84.0441L66.3135 85.0668L66.4372 85.2841L64.6412 86.3068L64.5174 86.0896L62.7214 87.1123L62.8451 87.3295L61.0491 88.3523L60.9254 88.135L59.1294 89.1578L59.2531 89.375L57.4571 90.3977L57.3334 90.1805L55.5374 91.2032L55.6611 91.4205L53.865 92.4432L53.7413 92.2259L51.9453 93.2487L52.069 93.4659L50.273 94.4886L50.1493 94.2714L49.375 94.7123L48.6007 94.2714L48.477 94.4886L46.681 93.4659L46.8047 93.2487L45.0087 92.2259L44.885 92.4432L43.0889 91.4205L43.2126 91.2032L41.4166 90.1805L41.2929 90.3977L39.4969 89.375L39.6206 89.1578L37.8246 88.135L37.7009 88.3523L35.9049 87.3295L36.0286 87.1123L34.2325 86.0896L34.1088 86.3068L32.3128 85.2841L32.4365 85.0668L30.6405 84.0441L30.5168 84.2614L28.7208 83.2386L28.8445 83.0214L27.0485 81.9987L26.9248 82.2159L25.1287 81.1932L25.2525 80.9759L23.4564 79.9532L23.3327 80.1705L21.5367 79.1477L21.6604 78.9305L19.8644 77.9078L19.7407 78.125L17.9447 77.1023L18.0684 76.885L16.2724 75.8623L16.1487 76.0795L14.3526 75.0568L14.4763 74.8396L12.6803 73.8168L12.5566 74.0341L10.7606 73.0114L10.8843 72.7941L10.1126 72.3547V71.4773H9.86259V69.4318H10.1126V67.3864H9.86259V65.3409H10.1126V63.2955H9.86259V61.25H10.1126V59.2045H9.86259V57.1591H10.1126V55.1136H9.86259V53.0682H10.1126V51.0227H9.86259V48.9773H10.1126V46.9318H9.86259V44.8864H10.1126V42.8409H9.86259V40.7955H10.1126V38.75H9.86259V36.7045H10.1126V34.6591H9.86259V32.6136H10.1126V30.5682H9.86259V28.5227H10.1126V27.6453L10.8843 27.2059L10.7606 26.9886L12.5566 25.9659L12.6803 26.1832L14.4763 25.1604L14.3526 24.9432L16.1487 23.9205L16.2724 24.1377L18.0684 23.115L17.9447 22.8977L19.7407 21.875L19.8644 22.0922L21.6604 21.0695L21.5367 20.8523L23.3327 19.8295L23.4564 20.0468L25.2525 19.0241L25.1287 18.8068L26.9248 17.7841L27.0485 18.0013L28.8445 16.9786L28.7208 16.7614L30.5168 15.7386L30.6405 15.9559L32.4365 14.9332L32.3128 14.7159L34.1088 13.6932L34.2325 13.9104L36.0286 12.8877L35.9049 12.6705L37.7009 11.6477L37.8246 11.865L39.6206 10.8422L39.4969 10.625L41.2929 9.60227L41.4166 9.81952L43.2126 8.79679L43.0889 8.57955L44.885 7.55682L45.0087 7.77406L46.8047 6.75134L46.681 6.53409Z" stroke="#83CF8E" stroke-width="0.5" stroke-dasharray="2 2"/>
<g filter="url(#filter0_i_678_4873)">
<circle cx="88.75" cy="28.75" r="7.5" fill="white"/>
</g>
<g filter="url(#filter1_i_678_4873)">
<circle cx="11.25" cy="28.75" r="7.5" fill="white"/>
</g>
<g filter="url(#filter2_i_678_4873)">
<circle cx="50" cy="90" r="7.5" fill="white"/>
</g>
<defs>
<filter id="filter0_i_678_4873" x="79.25" y="21.25" width="17" height="15" filterUnits="userSpaceOnUse" color-interpolation-filters="sRGB">
<feFlood flood-opacity="0" result="BackgroundImageFix"/>
<feBlend mode="normal" in="SourceGraphic" in2="BackgroundImageFix" result="shape"/>
<feColorMatrix in="SourceAlpha" type="matrix" values="0 0 0 0 0 0 0 0 0 0 0 0 0 0 0 0 0 0 127 0" result="hardAlpha"/>
<feOffset dx="-2"/>
<feGaussianBlur stdDeviation="1.5"/>
<feComposite in2="hardAlpha" operator="arithmetic" k2="-1" k3="1"/>
<feColorMatrix type="matrix" values="0 0 0 0 0.5625 0 0 0 0 0.550781 0 0 0 0 0.550781 0 0 0 1 0"/>
<feBlend mode="normal" in2="shape" result="effect1_innerShadow_678_4873"/>
</filter>
<filter id="filter1_i_678_4873" x="1.75" y="21.25" width="17" height="15" filterUnits="userSpaceOnUse" color-interpolation-filters="sRGB">
<feFlood flood-opacity="0" result="BackgroundImageFix"/>
<feBlend mode="normal" in="SourceGraphic" in2="BackgroundImageFix" result="shape"/>
<feColorMatrix in="SourceAlpha" type="matrix" values="0 0 0 0 0 0 0 0 0 0 0 0 0 0 0 0 0 0 127 0" result="hardAlpha"/>
<feOffset dx="-2"/>
<feGaussianBlur stdDeviation="1.5"/>
<feComposite in2="hardAlpha" operator="arithmetic" k2="-1" k3="1"/>
<feColorMatrix type="matrix" values="0 0 0 0 0.5625 0 0 0 0 0.550781 0 0 0 0 0.550781 0 0 0 1 0"/>
<feBlend mode="normal" in2="shape" result="effect1_innerShadow_678_4873"/>
</filter>
<filter id="filter2_i_678_4873" x="40.5" y="82.5" width="17" height="15" filterUnits="userSpaceOnUse" color-interpolation-filters="sRGB">
<feFlood flood-opacity="0" result="BackgroundImageFix"/>
<feBlend mode="normal" in="SourceGraphic" in2="BackgroundImageFix" result="shape"/>
<feColorMatrix in="SourceAlpha" type="matrix" values="0 0 0 0 0 0 0 0 0 0 0 0 0 0 0 0 0 0 127 0" result="hardAlpha"/>
<feOffset dx="-2"/>
<feGaussianBlur stdDeviation="1.5"/>
<feComposite in2="hardAlpha" operator="arithmetic" k2="-1" k3="1"/>
<feColorMatrix type="matrix" values="0 0 0 0 0.5625 0 0 0 0 0.550781 0 0 0 0 0.550781 0 0 0 1 0"/>
<feBlend mode="normal" in2="shape" result="effect1_innerShadow_678_4873"/>
</filter>
</defs>
</svg>
