<svg width="16" height="16" viewBox="0 0 16 16" fill="none" xmlns="http://www.w3.org/2000/svg">
<path d="M4.29261 5.10045C6.34743 6.11607 8.08378 6.05749 8.08378 6.05749C8.08378 6.05749 7.42549 3.81158 9.46021 2.81563C11.4949 1.81968 12.8953 3.49899 12.8953 3.49899C12.8953 3.49899 13.2501 3.40358 13.5143 3.30817C13.7789 3.21276 14.1614 3.04244 14.1614 3.04244L13.5344 4.13798L14.5 4.03755C14.5 4.03755 14.3812 4.20829 13.9947 4.55519C13.6083 4.9021 13.4489 5.0812 13.4489 5.0812C13.4489 5.0812 13.5869 7.78449 12.1323 9.86552C10.6776 11.947 8.79807 13.1961 6.06787 13.4589C3.33766 13.7217 1.55984 12.6387 1.55984 12.6387C1.55984 12.6387 2.75375 12.5717 3.51463 12.2872C4.27552 12.0026 5.36982 11.2523 5.36982 11.2523C5.36982 11.2523 3.81386 10.7836 3.25516 10.2564C2.6969 9.7291 2.55712 9.41651 2.55712 9.41651L4.09299 9.39684C4.09299 9.39684 2.47718 8.5574 2.01851 7.89329C1.55984 7.22919 1.5 6.58475 1.5 6.58475L2.68065 7.05176C2.68065 7.05176 1.6992 5.74531 1.55984 4.72969C1.42006 3.71408 1.73938 3.16756 1.73938 3.16756C1.73938 3.16756 2.2378 4.08484 4.29261 5.10045Z" fill="currentColor"/>
</svg>
