<svg width="32" height="32" viewBox="0 0 32 32" fill="none" xmlns="http://www.w3.org/2000/svg">
<circle cx="16" cy="16" r="16" fill="white"/>
<path d="M8.32273 11.0855C12.5628 6.97151 19.4372 6.97151 23.6772 11.0855L24.1875 11.5806C24.3995 11.7863 24.3995 12.1198 24.1875 12.3255L22.4419 14.0192C22.3359 14.122 22.1641 14.122 22.0581 14.0192L21.3558 13.3378C18.3979 10.4678 13.6021 10.4678 10.6441 13.3378L9.89212 14.0675C9.78611 14.1704 9.61425 14.1704 9.50825 14.0675L7.76264 12.3738C7.55063 12.1681 7.55063 11.8346 7.76264 11.6289L8.32273 11.0855ZM27.2873 14.5882L28.841 16.0956C29.053 16.3013 29.053 16.6348 28.841 16.8405L21.8357 23.6376C21.6237 23.8433 21.2799 23.8433 21.0679 23.6376C21.0679 23.6376 21.0679 23.6376 21.0679 23.6376L16.096 18.8135C16.043 18.7621 15.9571 18.7621 15.9041 18.8135C15.9041 18.8135 15.9041 18.8135 15.9041 18.8135L10.9322 23.6376C10.7202 23.8433 10.3765 23.8433 10.1645 23.6376C10.1645 23.6376 10.1645 23.6376 10.1645 23.6376L3.159 16.8404C2.947 16.6347 2.947 16.3012 3.159 16.0955L4.71261 14.5881C4.92461 14.3824 5.26833 14.3824 5.48033 14.5881L10.4523 19.4123C10.5053 19.4637 10.5913 19.4637 10.6443 19.4123C10.6443 19.4123 10.6443 19.4123 10.6443 19.4123L15.616 14.5881C15.828 14.3824 16.1718 14.3824 16.3838 14.5881C16.3838 14.5881 16.3838 14.5881 16.3838 14.5881L21.3558 19.4123C21.4088 19.4637 21.4947 19.4637 21.5477 19.4123L26.5196 14.5882C26.7316 14.3825 27.0753 14.3825 27.2873 14.5882Z" fill="#3B99FC"/>
</svg>
